<svg xmlns="http://www.w3.org/2000/svg" enable-background="new 0 0 6000 5000" viewBox="0 0 6000 5000"><ellipse cx="3000" cy="3731.746" fill="#c0e2ed" rx="2373.133" ry="288.084"/><path fill="#7eb769" d="M4756.066,2901.76c-3.51,14.383-7.303,28.598-11.637,42.741
					c-9.193,6.991-19.252,14.353-29.344,21.28c-23.232,16.014-46.813,29.87-61.668,31.982c0,0,38.734,4.726,68.99,4.037
					c-11.797,24.901-27.33,50.072-48.621,75.91c-44.689,12.666-108.9,30.595-123.356,30.965c0,0,34.297,14.193,73.606,20.549
					c-14.109,12.661-29.81,25.536-47.372,38.633c-26.948,4.068-75.899,17.104-111.393,13.768l55.126,24.313
					c-26.293,15.745-52.209,28.362-77.992,38.118c-30.579-1.122-71.303-3.89-81.764-10.638l22.446,28.269
					c-81.454,18.111-166.211,12.574-267.879-3.271c0,0,73.545-36.704,152.55-88.015l8.318,30.536l8.418-41.618
					c15.371-10.269,30.7-21.056,45.557-32.177l9.296,25.92c0,0,18.12-26.363,25.307-53.053c11.574-9.65,22.512-19.459,32.639-29.333
					l13.913,30.046l9.019-54.367c14.24-16.649,25.453-33.134,31.964-49.152c2.171-5.339,4.349-10.592,6.518-15.932l24.274,46.845
					l-6.975-88.085c9.96-23.296,19.973-45.9,29.841-66.941l48.937,83.893l-20.457-140.924
					c16.597-30.915,31.772-53.824,43.958-63.665l12.903,99.714l18.222-83.794l7.524-34.841c47.1-21.734,119.99-55.392,119.99-55.392
					S4778.718,2810.663,4756.066,2901.76z"/><path d="M4756.066,2901.76c-3.51,14.383-7.303,28.598-11.637,42.741
				c-9.193,6.991-19.252,14.353-29.344,21.28c57.021-96.309-3.799-251.27-3.799-251.27l-101.877,53.802l7.524-34.841
				c47.1-21.734,119.99-55.392,119.99-55.392S4778.718,2810.663,4756.066,2901.76z" opacity=".17"/><path d="M4155.02,3253.006c30.802-3.41,61.255-9.322,91.255-16.736c30.063-7.146,59.73-15.906,88.634-26.666
					c29.098-10.706,57.131-22.689,81.797-41.066c24.658-18.263,47.563-38.922,69.374-60.68
					c43.768-43.449,82.914-91.507,119.403-141.324c17.904-25.154,35.512-50.615,50.996-77.356
					c15.703-26.538,30.971-53.685,40.764-83.156c-18.137,59.574-51.546,113.13-86.121,164.496
					c-35.559,50.969-75.001,99.3-118.711,143.688c-22.25,21.808-45.628,42.548-70.965,60.967
					c-25.477,18.509-54.859,31.295-84.238,40.909C4278.29,3236.206,4216.88,3248.793,4155.02,3253.006z" opacity=".17"/><path d="M4139.993,3256.547c61.227-6.115,121.348-20.86,178.776-41.929c28.93-10.562,56.324-23.236,80.717-41.66
					c24.592-18.007,46.906-39.062,68.687-60.512c43.229-43.389,82.153-91.046,118.313-140.585
					c17.71-25.026,35.223-50.293,50.562-76.872c15.567-26.37,30.703-53.336,40.441-82.599
					c-17.979,59.173-51.116,112.372-85.36,163.449c-35.224,50.686-74.447,98.617-117.602,142.932
					c-22.228,21.509-44.976,42.611-70.252,60.785c-25.081,18.496-53.936,32.052-83.183,41.529
					C4262.645,3241.251,4201.522,3253.71,4139.993,3256.547z" opacity=".17"/><path d="M4604.367,2914.828c2.208-36.094,12.904-71.53,29.529-104.028c9.092-15.825,19.443-31.174,32.697-43.976
					c13.484-12.518,29.354-22.442,46.659-27.75c-15.847,8.768-29.796,19.638-41.712,32.565
					c-11.635,13.188-21.561,27.788-29.749,43.406c-8.819,15.312-15.232,31.912-21.497,48.536
					C4614.201,2880.298,4608.901,2897.385,4604.367,2914.828z" opacity=".17"/><path d="M4562.455,3072.307c19.9-7.557,40.073-12.778,59.771-19.457c9.986-2.865,19.691-6.419,29.354-10.012
					c9.546-3.822,19.068-7.735,27.001-14.802c-5.138,9.632-14.872,15.878-24.095,21.064c-9.478,5.081-19.551,8.688-29.547,12.293
					C4604.519,3067.19,4583.825,3072.017,4562.455,3072.307z" opacity=".17"/><path d="M4630.773,2975.238c15.967-17.38,33.129-32.963,49.018-49.776c8.289-8.052,15.936-16.646,23.42-25.331
					c7.293-8.813,14.375-17.867,18.08-29.064c-0.012,12.08-6.172,23.317-12.541,33.187c-6.629,9.928-14.59,18.757-22.549,27.477
					C4669.243,2948.121,4651.415,2963.612,4630.773,2975.238z" opacity=".17"/><path d="M4564.186,2961.188c1.451-23.725,4.956-46.813,6.634-70.055c1.371-11.564,1.829-23.145,2.132-34.689
					c0.161-11.545-0.189-23.101-4.155-34.294c7.408,9.604,9.825,22.211,11.053,33.985c1.145,11.966,0.593,23.932-0.103,35.8
					C4576.977,2915.533,4572.896,2938.975,4564.186,2961.188z" opacity=".17"/><path d="M4480.655,3074.402c8.729-20.639,17.249-40.754,22.856-61.865c3.462-10.353,5.537-21.048,7.564-31.766
					c2.242-10.741,2.942-21.645,4.272-32.855c5.251,22.016,2.698,45.361-3.226,67.111
					C4505.326,3036.554,4495.775,3057.545,4480.655,3074.402z" opacity=".17"/><path d="M4354.789,3178.682c7.686-10.935,16.389-20.048,22.961-30.58c7.376-10.07,12.525-20.604,13.662-33.879
					c3.23,5.998,3.477,13.391,2.074,20.188c-1.339,6.917-4.848,12.958-8.332,18.742
					C4377.092,3164.01,4367.247,3173.414,4354.789,3178.682z" opacity=".17"/><path d="M4284.542,3212.241c7.685-10.935,16.388-20.048,22.96-30.58c7.377-10.07,12.526-20.603,13.663-33.878
					c3.229,5.997,3.477,13.391,2.074,20.187c-1.339,6.917-4.849,12.958-8.332,18.743
					C4306.845,3197.569,4297,3206.974,4284.542,3212.241z" opacity=".17"/><path d="M4432.183,3111.798c4.126-12.75,9.745-24.065,12.855-36.122c4.028-11.854,5.71-23.492,3.047-36.594
					c4.767,4.875,7.173,11.838,7.874,18.76c0.795,7.015-0.774,13.838-2.341,20.432
					C4449.184,3091.095,4442.545,3103.049,4432.183,3111.798z" opacity=".17"/><path d="M4366.564,3214.471c17.475-1.625,34.448-0.848,51.459-1.4c17.064,0.362,33.69-0.434,51.16-1.229
					c-15.832,8.113-33.844,9.559-51.121,10.193C4400.673,3221.532,4383.24,3220.219,4366.564,3214.471z" opacity=".17"/><path d="M4485.953,3141.315c17.476-1.626,34.449-0.848,51.46-1.4c17.064,0.361,33.689-0.435,51.159-1.229
					c-15.832,8.113-33.843,9.56-51.12,10.193C4520.063,3148.376,4502.63,3147.063,4485.953,3141.315z" opacity=".17"/><g><path fill="#7eb769" d="M1518.868,2419.715c3.511,14.382,7.304,28.598,11.638,42.742
					c9.192,6.991,19.25,14.352,29.343,21.28c23.232,16.013,46.813,29.87,61.667,31.982c0,0-38.733,4.725-68.99,4.036
					c11.797,24.902,27.331,50.073,48.621,75.911c44.689,12.665,108.9,30.595,123.356,30.965c0,0-34.296,14.193-73.606,20.549
					c14.109,12.661,29.811,25.536,47.373,38.633c26.949,4.068,75.9,17.103,111.393,13.768l-55.127,24.313
					c26.294,15.745,52.209,28.362,77.993,38.118c30.579-1.122,71.303-3.89,81.763-10.638l-22.446,28.269
					c81.454,18.111,166.21,12.573,267.878-3.271c0,0-73.544-36.704-152.549-88.015l-8.318,30.536l-8.419-41.619
					c-15.37-10.269-30.7-21.056-45.557-32.177l-9.295,25.921c0,0-18.121-26.363-25.307-53.053
					c-11.574-9.651-22.511-19.46-32.638-29.334l-13.914,30.047l-9.018-54.367c-14.24-16.649-25.453-33.135-31.964-49.152
					c-2.171-5.339-4.348-10.593-6.518-15.932l-24.273,46.845l6.974-88.085c-9.959-23.296-19.973-45.9-29.841-66.941l-48.937,83.892
					l20.458-140.923c-16.597-30.915-31.773-53.825-43.959-63.665l-12.902,99.713l-18.222-83.794l-7.525-34.84
					c-47.099-21.735-119.99-55.392-119.99-55.392S1496.217,2328.619,1518.868,2419.715z"/><path d="M1518.868,2419.715c3.511,14.382,7.304,28.598,11.638,42.742
				c9.192,6.991,19.25,14.352,29.343,21.28c-57.021-96.309,3.799-251.27,3.799-251.27l101.876,53.801l-7.525-34.84
				c-47.099-21.735-119.99-55.392-119.99-55.392S1496.217,2328.619,1518.868,2419.715z" opacity=".17"/><path d="M2119.917,2770.961c-61.861-4.212-123.271-16.8-182.188-36.926c-29.378-9.613-58.761-22.4-84.238-40.908
					c-25.337-18.42-48.716-39.16-70.965-60.968c-43.711-44.388-83.153-92.718-118.71-143.687
					c-34.576-51.366-67.986-104.923-86.122-164.497c9.793,29.472,25.061,56.618,40.764,83.156
					c15.484,26.742,33.091,52.203,50.995,77.356c36.49,49.818,75.637,97.875,119.404,141.325
					c21.812,21.757,44.715,42.417,69.374,60.68c24.666,18.376,52.7,30.36,81.796,41.065c28.904,10.76,58.572,19.521,88.635,26.666
					C2058.661,2761.639,2089.113,2767.551,2119.917,2770.961z" opacity=".17"/><path d="M2134.942,2774.504c-61.529-2.838-122.652-15.297-181.098-35.463c-29.248-9.477-58.103-23.033-83.183-41.529
					c-25.276-18.174-48.024-39.275-70.252-60.785c-43.155-44.313-82.378-92.245-117.601-142.931
					c-34.244-51.077-67.381-104.276-85.36-163.449c9.738,29.263,24.874,56.229,40.441,82.598
					c15.339,26.579,32.851,51.846,50.561,76.873c36.16,49.539,75.084,97.196,118.313,140.585
					c21.78,21.449,44.095,42.505,68.688,60.512c24.392,18.424,51.787,31.098,80.716,41.659
					C2013.595,2753.643,2073.715,2768.388,2134.942,2774.504z" opacity=".17"/><path d="M1670.568,2432.784c-4.535-17.444-9.834-34.531-15.927-51.246c-6.265-16.625-12.679-33.225-21.498-48.537
					c-8.189-15.618-18.115-30.218-29.749-43.406c-11.916-12.928-25.867-23.798-41.712-32.566
					c17.305,5.308,33.174,15.233,46.659,27.75c13.253,12.802,23.606,28.151,32.697,43.975
					C1657.663,2361.253,1668.359,2396.69,1670.568,2432.784z" opacity=".17"/><path d="M1712.481,2590.262c-21.371-0.289-42.064-5.115-62.485-10.913c-9.997-3.604-20.069-7.211-29.547-12.292
					c-9.223-5.187-18.957-11.434-24.095-21.064c7.933,7.066,17.454,10.979,27,14.802c9.662,3.593,19.368,7.146,29.354,10.011
					C1672.407,2577.484,1692.58,2582.705,1712.481,2590.262z" opacity=".17"/><path d="M1644.161,2493.193c-20.641-11.626-38.469-27.116-55.428-43.509c-7.958-8.719-15.918-17.548-22.548-27.476
					c-6.37-9.869-12.529-21.107-12.54-33.186c3.703,11.198,10.788,20.252,18.078,29.064c7.485,8.685,15.131,17.278,23.42,25.331
					C1611.033,2460.231,1628.196,2475.814,1644.161,2493.193z" opacity=".17"/><path d="M1710.75,2479.143c-8.71-22.212-12.791-45.654-15.561-69.252c-0.695-11.868-1.247-23.834-0.102-35.799
					c1.227-11.774,3.644-24.381,11.052-33.985c-3.966,11.193-4.316,22.749-4.155,34.293c0.303,11.545,0.761,23.125,2.132,34.689
					C1705.793,2432.331,1709.298,2455.419,1710.75,2479.143z" opacity=".17"/><path d="M1794.279,2592.357c-15.12-16.857-24.67-37.849-31.467-59.375c-5.923-21.75-8.476-45.095-3.226-67.11
					c1.331,11.211,2.03,22.114,4.273,32.855c2.026,10.718,4.102,21.414,7.563,31.766
					C1777.03,2551.604,1785.552,2571.719,1794.279,2592.357z" opacity=".17"/><path d="M1920.146,2696.637c-12.458-5.268-22.303-14.672-30.365-25.528c-3.483-5.785-6.992-11.826-8.332-18.743
					c-1.402-6.796-1.155-14.189,2.074-20.187c1.138,13.275,6.287,23.809,13.664,33.878
					C1903.758,2676.589,1912.461,2685.703,1920.146,2696.637z" opacity=".17"/><path d="M1990.394,2730.197c-12.458-5.268-22.304-14.672-30.365-25.529c-3.483-5.785-6.993-11.825-8.333-18.742
					c-1.402-6.797-1.155-14.189,2.074-20.187c1.138,13.274,6.288,23.808,13.664,33.878
					C1974.005,2710.149,1982.708,2719.263,1990.394,2730.197z" opacity=".17"/><path d="M1842.752,2629.754c-10.362-8.749-17-20.703-21.435-33.525c-1.566-6.594-3.137-13.416-2.34-20.432
					c0.701-6.921,3.106-13.884,7.874-18.759c-2.664,13.101-0.982,24.74,3.047,36.593
					C1833.008,2605.688,1838.626,2617.004,1842.752,2629.754z" opacity=".17"/><path d="M1908.371,2732.427c-16.676,5.747-34.107,7.062-51.498,7.563c-17.277-0.634-35.29-2.08-51.122-10.192
					c17.47,0.794,34.096,1.591,51.16,1.229C1873.922,2731.578,1890.896,2730.801,1908.371,2732.427z" opacity=".17"/><path d="M1788.981,2659.271c-16.677,5.747-34.108,7.061-51.498,7.563c-17.277-0.635-35.289-2.081-51.121-10.193
					c17.47,0.795,34.095,1.591,51.16,1.229C1754.533,2658.423,1771.506,2657.646,1788.981,2659.271z" opacity=".17"/></g><g><path fill="#6cb854" d="M4328.117,3150.195c-0.687,1.304-1.372,2.608-2.23,3.912
						c-6.344,11.726-27.761,46.725-57.234,59.161c-22.363,9.332-44.014,3.981-57.199-1.687c-3.246-1.473-5.832-2.734-7.929-3.787
						c-0.173,0.002-0.173,0.002-0.173,0.002c-2.241-1.269-3.679-2.115-4.311-2.54c-0.316-0.212-0.459-0.426-0.459-0.426
						s6.971-13.892,19.132-29.356c0.345-0.004,0.372-0.221,0.429-0.653c10.246-12.64,23.876-26.179,40.075-33.063
						c4.358-1.78,8.632-2.908,12.876-3.824C4301.76,3132.172,4328.117,3150.195,4328.117,3150.195z"/><path d="M4325.887,3154.107c-6.344,11.726-27.761,46.725-57.234,59.161
					c-22.363,9.332-44.014,3.981-57.199-1.687c-3.246-1.473-5.832-2.734-7.929-3.787
					C4208.43,3207.088,4301.35,3191.946,4325.887,3154.107z" opacity=".3"/><path fill="#fff" d="M4232.361,3179.93c7.444-10.905,18.521-18.003,30.194-23.653
						c11.91-4.559,26.148-7.631,38.385-1.889c-12.742,2.394-23.628,5.599-34.62,10.749
						C4255.043,3169.403,4244.573,3175.404,4232.361,3179.93z" opacity=".74"/><path fill="#6cb854" d="M4387.099,3001.194c-0.574,1.368-1.147,2.736-1.896,4.129
						c-5.334,12.325-23.772,49.47-52.477,65.796c-21.791,12.287-44.227,10.175-58.115,6.543c-3.427-0.97-6.164-1.829-8.389-2.554
						c-0.174,0.026-0.174,0.026-0.174,0.026c-2.39-0.914-3.925-1.533-4.604-1.855c-0.341-0.162-0.506-0.35-0.506-0.35
						s5.769-14.523,16.648-31.323c0.35-0.054,0.357-0.268,0.374-0.697c9.203-13.773,21.751-28.907,37.523-37.929
						c4.25-2.357,8.475-4.067,12.691-5.566C4358.71,2987.416,4387.099,3001.194,4387.099,3001.194z"/><path d="M4385.203,3005.323c-5.334,12.325-23.772,49.47-52.477,65.796
					c-21.791,12.287-44.227,10.175-58.115,6.543c-3.427-0.97-6.164-1.829-8.389-2.554
					C4271.128,3073.719,4363.869,3045.68,4385.203,3005.323z" opacity=".3"/><path fill="#fff" d="M4292.846,3043.849c6.554-11.858,17.057-20.31,28.276-27.46
						c11.595-6.079,25.531-11.102,38.83-7.223c-12.623,4.231-23.396,8.973-34.048,15.577
						C4314.861,3030.501,4304.8,3037.844,4292.846,3043.849z" opacity=".74"/><path fill="#6cb854" d="M4445.215,2845.59c-0.541,1.383-1.082,2.766-1.799,4.179
						c-5.043,12.463-22.617,50.114-51.045,67.476c-21.582,13.073-44.185,11.858-58.235,8.796c-3.469-0.829-6.241-1.575-8.495-2.208
						c-0.174,0.034-0.174,0.034-0.174,0.034c-2.426-0.815-3.984-1.37-4.676-1.664c-0.346-0.147-0.517-0.327-0.517-0.327
						s5.423-14.665,15.925-31.794c0.35-0.066,0.353-0.28,0.359-0.708c8.894-14.055,21.115-29.593,36.733-39.184
						c4.211-2.51,8.412-4.377,12.61-6.033C4416.332,2833.013,4445.215,2845.59,4445.215,2845.59z"/><path d="M4443.416,2849.769c-5.043,12.463-22.617,50.114-51.045,67.476
					c-21.582,13.073-44.185,11.858-58.235,8.796c-3.469-0.829-6.241-1.575-8.495-2.208
					C4330.534,2922.257,4423.015,2890.727,4443.416,2849.769z" opacity=".3"/><path fill="#fff" d="M4351.592,2891.708c6.301-12.105,16.631-20.912,27.704-28.458
						c11.488-6.481,25.306-12.011,38.843-8.666c-12.55,4.729-23.268,9.878-33.803,16.869
						C4373.381,2877.609,4363.452,2885.307,4351.592,2891.708z" opacity=".74"/><path fill="#6cb854" d="M4482.178,2710.023c-0.541,1.383-1.082,2.765-1.798,4.178
						c-5.044,12.464-22.618,50.114-51.046,67.477c-21.582,13.072-44.185,11.858-58.235,8.795c-3.469-0.828-6.241-1.574-8.494-2.207
						c-0.175,0.033-0.175,0.033-0.175,0.033c-2.426-0.814-3.984-1.369-4.676-1.664c-0.346-0.146-0.517-0.327-0.517-0.327
						s5.423-14.665,15.925-31.793c0.35-0.067,0.353-0.28,0.359-0.708c8.894-14.055,21.115-29.594,36.733-39.184
						c4.211-2.511,8.412-4.378,12.61-6.033C4453.295,2697.445,4482.178,2710.023,4482.178,2710.023z"/><path d="M4480.38,2714.201c-5.044,12.464-22.618,50.114-51.046,67.477
					c-21.582,13.072-44.185,11.858-58.235,8.795c-3.469-0.828-6.241-1.574-8.494-2.207
					C4367.497,2786.69,4459.978,2755.16,4480.38,2714.201z" opacity=".3"/><path fill="#fff" d="M4388.555,2756.142c6.301-12.106,16.632-20.913,27.705-28.458
						c11.486-6.482,25.304-12.012,38.843-8.666c-12.552,4.729-23.268,9.877-33.805,16.868
						C4410.345,2742.042,4400.414,2749.74,4388.555,2756.142z" opacity=".74"/><g><path fill="#6cb854" d="M4480.397,2582.477c-0.286,1.242-0.57,2.483-1.004,3.786
						c-2.715,11.228-12.958,45.63-35.444,65.733c-17.086,15.174-37.006,18.896-49.703,19.325c-3.145,0.047-5.67,0.017-7.725-0.03
						c-0.148,0.064-0.148,0.064-0.148,0.064c-2.23-0.16-3.668-0.288-4.312-0.384c-0.323-0.048-0.497-0.159-0.497-0.159
						s2.746-13.104,9.598-29.277c0.297-0.128,0.27-0.303,0.217-0.653c5.863-13.329,14.434-28.563,26.781-39.65
						c3.338-2.928,6.757-5.328,10.201-7.556C4453.443,2578.232,4480.397,2582.477,4480.397,2582.477z"/><path d="M4479.394,2586.263c-2.715,11.228-12.958,45.63-35.444,65.733
					c-17.086,15.174-37.006,18.896-49.703,19.325c-3.145,0.047-5.67,0.017-7.725-0.03
					C4390.584,2668.984,4467.129,2623.956,4479.394,2586.263z" opacity=".3"/><path fill="#fff" d="M4404.836,2639.652c3.558-11.932,11.422-21.339,20.005-29.874
						c9.218-7.568,20.427-14.833,33.114-14.312c-9.939,7.11-18.484,13.52-26.689,21.48
						C4422.488,2624.147,4414.8,2632.455,4404.836,2639.652z" opacity=".74"/></g><g><path fill="#6cb854" d="M4416.61,2444.91c0.518,0.948,1.035,1.895,1.47,3.013c4.571,8.691,17.026,37.101,11.004,68.943
						c-4.637,24.14-18.451,44.589-28.427,56.554c-2.507,2.93-4.56,5.245-6.245,7.118c-0.081,0.172-0.081,0.172-0.081,0.172
						c-1.894,1.972-3.129,3.229-3.706,3.772c-0.289,0.271-0.496,0.37-0.496,0.37s-5.675-9.754-9.89-24.991
						c0.162-0.344,0.035-0.416-0.218-0.56c-3.299-12.758-5.563-29.063-2.285-46.575c0.929-4.696,2.239-9.176,3.675-13.585
						C4392.329,2467.469,4416.61,2444.91,4416.61,2444.91z"/><path d="M4418.08,2447.923c4.571,8.691,17.026,37.101,11.004,68.943
					c-4.637,24.14-18.451,44.589-28.427,56.554c-2.507,2.93-4.56,5.245-6.245,7.118
					C4396.298,2575.516,4430.887,2480.013,4418.08,2447.923z" opacity=".3"/><path fill="#fff" d="M4390.129,2546.195c-4.324-12.668-3.418-25.9-1.457-38.77
						c3.046-12.58,7.725-25.571,17.669-34.631c-2.845,12.89-6.31,24.267-8.232,36.528
						C4395.182,2521.328,4393.775,2533.51,4390.129,2546.195z" opacity=".74"/></g><g><path fill="#6cb854" d="M4294.564,2587.328c-0.02,1.235-0.039,2.471,0.075,3.761
						c-0.04,11.163,1.772,45.279,19.43,64.426c13.442,14.446,32.561,17.239,45.227,17.063c3.151-0.103,5.699-0.254,7.777-0.398
						c0.134,0.057,0.134,0.057,0.134,0.057c2.282-0.268,3.76-0.465,4.432-0.592c0.337-0.063,0.539-0.185,0.539-0.185
						s0.472-13.049-2.429-28.99c-0.267-0.114-0.196-0.292-0.058-0.646c-2.607-13.128-7.468-28.042-17.152-38.604
						c-2.636-2.785-5.481-5.036-8.396-7.112C4322.725,2581.771,4294.564,2587.328,4294.564,2587.328z"/><path d="M4294.64,2591.089c-0.04,11.163,1.772,45.279,19.43,64.426
					c13.442,14.446,32.561,17.239,45.227,17.063c3.151-0.103,5.699-0.254,7.777-0.398
					C4363.557,2670.053,4297.675,2628.417,4294.64,2591.089z" opacity=".3"/><path fill="#fff" d="M4356.458,2641.23c-7.957-7.442-13.589-15.398-20.545-22.234
						c-6.344-7.521-13.234-13.239-21.979-19.675c5.48-0.612,10.996,0.878,16.012,3.243c4.953,2.493,9.065,6.205,13.039,9.898
						C4349.821,2620.81,4355.598,2630.166,4356.458,2641.23z" opacity=".74"/></g><g><path fill="#6cb854" d="M4272.67,2697.82c-0.02,1.235-0.039,2.47,0.076,3.761c-0.041,11.163,1.771,45.278,19.43,64.425
						c13.441,14.447,32.56,17.239,45.226,17.064c3.151-0.104,5.699-0.254,7.778-0.399c0.133,0.057,0.133,0.057,0.133,0.057
						c2.283-0.267,3.761-0.464,4.433-0.591c0.336-0.064,0.538-0.185,0.538-0.185s0.471-13.05-2.429-28.991
						c-0.267-0.113-0.196-0.291-0.057-0.646c-2.608-13.128-7.469-28.042-17.153-38.604c-2.636-2.785-5.481-5.036-8.396-7.112
						C4300.83,2692.263,4272.67,2697.82,4272.67,2697.82z"/><path d="M4272.746,2701.581c-0.041,11.163,1.771,45.278,19.43,64.425
					c13.441,14.447,32.56,17.239,45.226,17.064c3.151-0.104,5.699-0.254,7.778-0.399
					C4341.662,2780.545,4275.78,2738.909,4272.746,2701.581z" opacity=".3"/><path fill="#fff" d="M4334.564,2751.722c-7.957-7.442-13.591-15.397-20.545-22.233
						c-6.346-7.522-13.236-13.24-21.98-19.675c5.479-0.612,10.997,0.878,16.012,3.242c4.954,2.494,9.064,6.206,13.039,9.899
						C4327.928,2731.302,4333.702,2740.658,4334.564,2751.722z" opacity=".74"/></g><g><path fill="#6cb854" d="M4231.069,2813.018c-0.132,1.334-0.263,2.668-0.259,4.079
						c-1.042,12.071-2.208,49.231,14.509,72.373c12.737,17.478,32.444,23.128,45.683,24.681c3.299,0.321,5.972,0.508,8.154,0.637
						c0.135,0.08,0.135,0.08,0.135,0.08c2.406,0.024,3.967,0.015,4.68-0.031c0.356-0.021,0.578-0.125,0.578-0.125
						s1.662-14.053,0.063-31.698c-0.269-0.16-0.18-0.343-0.002-0.707c-1.547-14.562-5.283-31.365-14.446-44.124
						c-2.502-3.376-5.271-6.202-8.128-8.85C4260.964,2810.877,4231.069,2813.018,4231.069,2813.018z"/><path d="M4230.811,2817.097c-1.042,12.071-2.208,49.231,14.509,72.373
					c12.737,17.478,32.444,23.128,45.683,24.681c3.299,0.321,5.972,0.508,8.154,0.637
					C4295.676,2912.004,4230.633,2857.899,4230.811,2817.097z" opacity=".3"/><path fill="#fff" d="M4290.85,2879.844c-7.47-9.112-12.607-18.529-19.258-26.941
						c-5.955-9.021-12.726-16.321-21.379-24.245c12.262,0.602,22.117,9.556,29.189,18.618
						C4285.715,2857.127,4290.814,2867.871,4290.85,2879.844z" opacity=".74"/></g><g><path fill="#6cb854" d="M4174.651,2920.791c-0.28,1.561-0.561,3.12-0.693,4.793c-2.369,14.145-7.324,57.99,9.531,87.905
						c12.858,22.61,34.839,32.251,49.821,36.07c3.74,0.874,6.778,1.495,9.262,1.975c0.146,0.115,0.146,0.115,0.146,0.115
						c2.749,0.389,4.534,0.61,5.354,0.663c0.41,0.027,0.674-0.062,0.674-0.062s3.27-16.399,3.162-37.542
						c-0.29-0.229-0.171-0.432,0.067-0.838c-0.349-17.48-2.982-37.945-12.214-54.431c-2.531-4.373-5.422-8.136-8.431-11.699
						C4209.037,2922.727,4174.651,2920.791,4174.651,2920.791z"/><path d="M4173.958,2925.584c-2.369,14.145-7.324,57.99,9.531,87.905
					c12.858,22.61,34.839,32.251,49.821,36.07c3.74,0.874,6.778,1.495,9.262,1.975
					C4238.864,3047.716,4169.777,2973.894,4173.958,2925.584z" opacity=".3"/><path fill="#fff" d="M4236.482,3008.897c-7.096-11.956-12.025-23.979-18.779-35.058
						c-5.991-11.598-13.242-21.528-22.689-31.659c14.008,3.372,24.008,15.257,31.088,26.953
						C4232.326,2981.556,4237.066,2994.824,4236.482,3008.897z" opacity=".74"/></g><g><path fill="#6cb854" d="M4112.884,3046.381c-0.296,1.56-0.593,3.118-0.743,4.793c-2.518,14.136-7.939,57.996,8.55,88.26
						c12.581,22.875,34.403,32.905,49.309,36.984c3.722,0.938,6.745,1.611,9.218,2.134c0.144,0.117,0.144,0.117,0.144,0.117
						c2.739,0.437,4.517,0.688,5.333,0.755c0.409,0.033,0.674-0.051,0.674-0.051s3.439-16.381,3.563-37.572
						c-0.287-0.234-0.166-0.436,0.076-0.838c-0.157-17.525-2.562-38.081-11.591-54.757c-2.478-4.425-5.32-8.245-8.283-11.866
						C4147.167,3048.896,4112.884,3046.381,4112.884,3046.381z"/><path d="M4112.141,3051.174c-2.518,14.136-7.939,57.996,8.55,88.26
					c12.581,22.875,34.403,32.905,49.309,36.984c3.722,0.938,6.745,1.611,9.218,2.134
					C4175.559,3174.662,4107.442,3099.521,4112.141,3051.174z" opacity=".3"/><path fill="#fff" d="M4173.605,3135.718c-6.958-12.085-11.745-24.217-18.363-35.434
						c-5.848-11.724-12.971-21.809-22.278-32.125c13.983,3.639,23.811,15.71,30.743,27.54
						C4169.773,3108.244,4174.353,3121.61,4173.605,3135.718z" opacity=".74"/></g><g><path fill="#6cb854" d="M4131.313,3250.129c31.05-49.809,60.485-103.668,87.738-157.739
					c27.268-54.348,52.394-110.059,75.192-166.846c22.601-56.88,41.922-115.065,58.241-174.025
					c15.664-59.108,26.622-119.022,32.699-178.981l0.022-0.223c0.307-3.026,2.522-5.592,4.947-5.731
					c2.343-0.136,4.024,2.058,3.86,4.932c-3.56,60.646-12.181,121.962-25.691,182.753c-14.154,60.609-31.499,120.81-52.25,179.842
					c-20.945,58.932-44.36,116.986-70.071,173.871c-25.935,56.995-53.199,112.343-84.439,167.416
					c-6.812,12.006-19.35,16.49-28.006,10.012c-8.655-6.479-10.15-21.463-3.34-33.469c0.205-0.361,0.416-0.717,0.632-1.064
					L4131.313,3250.129z"/></g></g><g><polygon fill="#e6e6e6" points="2621.9 3285.164 1780.502 3327.772 1214.718 3218.275 2124.113 3168.943"/><polygon fill="#d8d4d2" points="1716.835 3824.175 1268.024 3691.709 1132.201 3453.827 1116.278 3426.01 1689.594 3598.858 1691.704 3616.699"/><path d="M1716.835,3824.175l-448.811-132.466c0,0,130.856-14.268,238.602,9.592
					c106.805,23.651,182.968-102.442,182.968-102.442L1716.835,3824.175z" opacity=".12"/><polygon fill="#e6e6e6" points="2708.172 3504.761 2701.554 3524.52 2629.709 3739.957 1716.835 3824.175 1691.896 3617.851 1689.594 3598.858"/><path d="M2708.172,3504.761l-78.463,235.196l-912.874,84.218c0,0,454.471-92.467,622.331-108.485
					C2507.027,3699.67,2708.172,3504.761,2708.172,3504.761z" opacity=".2"/><polygon points="1691.704 3616.699 1132.201 3453.827 1116.278 3426.01 1689.594 3598.858" opacity=".42"/><path fill="#d8d4d2" d="M1780.468,3327.771c0,0,0,0-0.101,0.101l-92.887,270.987l-603.461-181.937l130.647-198.697
					L1780.468,3327.771z"/><path d="M1780.368,3327.871l-92.887,270.987l-603.461-181.937c0,0,159.725,21.201,322.983,57.045
					C1567.838,3509.304,1774.512,3332.92,1780.368,3327.871z" opacity=".12"/><polygon points="2708.172 3504.761 2701.554 3524.52 1691.896 3617.851 1689.594 3598.858" opacity=".76"/><polygon fill="#d8d4d2" points="1780.502 3327.772 1687.489 3598.837 2759.585 3499.836 2621.9 3285.164"/><g><polygon fill="#f9d367" points="2820.646 2788.859 1979.247 2831.469 1413.463 2721.972 2322.858 2672.64"/><polygon fill="#eaab0c" points="1915.58 3327.871 1466.769 3195.405 1330.946 2957.523 1315.023 2929.706 1888.339 3102.555 1890.449 3120.396"/><path d="M1915.58,3327.871l-448.811-132.466c0,0,130.855-14.268,238.602,9.592
					c106.805,23.651,182.968-102.442,182.968-102.442L1915.58,3327.871z" opacity=".12"/><polygon fill="#f9cf4b" points="2906.917 3008.457 2900.299 3028.217 2828.454 3243.652 1915.58 3327.871 1890.641 3121.547 1888.339 3102.555"/><path d="M2906.917,3008.457l-78.463,235.195l-912.874,84.219c0,0,454.471-92.467,622.331-108.485
					C2705.771,3203.366,2906.917,3008.457,2906.917,3008.457z" opacity=".2"/><polygon points="1890.449 3120.396 1330.946 2957.523 1315.023 2929.706 1888.339 3102.555" opacity=".42"/><path fill="#edbb2f" d="M1979.213,2831.467c0,0,0,0-0.1,0.101l-92.887,270.987l-603.46-181.938l130.647-198.696
					L1979.213,2831.467z"/><path d="M1979.113,2831.567l-92.887,270.987l-603.46-181.938c0,0,159.725,21.202,322.983,57.045
					C1766.583,3013,1973.257,2836.615,1979.113,2831.567z" opacity=".12"/><polygon points="2906.917 3008.457 2900.299 3028.217 1890.641 3121.547 1888.339 3102.555" opacity=".76"/><polygon fill="#edbb2f" points="1979.247 2831.469 1886.233 3102.533 2958.33 3003.532 2820.646 2788.859"/></g><g><path d="M2381.214,2063.144c0,12.17-133.549,35.201-298.733,35.201s-300.018-23.031-300.018-35.201
					s134.834-21.934,300.018-21.934S2381.214,2050.974,2381.214,2063.144z"/><path fill="#e6e6e6" d="M2391.3,1835.961l-1.314,18.318l-1.577,23.315l-19.984,255.058l-25.682,334.818v0.526
					l-1.402,18.318l-18.582,241.999c0,4.82-19.633,11.569-52.414,17.704c-9.905,1.842-21.036,3.682-33.219,5.348
					c-9.466,1.314-19.546,2.541-30.151,3.593c-9.641,0.964-19.721,1.929-30.152,2.806c-29.011,2.278-60.916,3.593-94.486,3.593
					c-65.648,0-125.249-5.259-168.898-12.008c-44.789-6.924-72.574-15.251-72.574-21.035l-19.896-259.704l-25.769-337.185
					l-22.788-295.464H2391.3z"/><path fill="#da9b68" d="M2380.796,2067.515l-25.638,275.402c-0.06,11.09-121.991,32.138-272.72,32.138
					c-75.424,0-143.932-5.247-193.539-11.925c-49.607-6.618-80.373-14.667-80.373-20.213l-25.638-275.522
					c0,12.164,134.81,35.178,300.027,35.178C2248.074,2102.573,2380.796,2079.737,2380.796,2067.515z"/><path fill="#f9d367" d="M2380.796,2067.515l-25.638,275.402c-0.06,11.09-121.991,32.138-272.72,32.138
					c-75.424,0-143.932-5.247-193.539-11.925c-49.607-6.618-80.373-14.667-80.373-20.213l-25.638-275.522
					c0,12.164,134.81,35.178,300.027,35.178C2248.074,2102.573,2380.796,2079.737,2380.796,2067.515z"/><path fill="#9a9895" d="M2381.214,2063.162l-0.417,16.277c0,12.223-132.723,35.059-297.881,35.059
					c-165.217,0-300.027-23.015-300.027-35.178l-0.417-16.158c0,0.715,0.477,1.55,1.49,2.325
					c15.085,12.581,143.396,32.853,298.537,32.853c154.665,0,281.604-20.153,297.106-32.793c0.06,0,0.06,0,0.06,0
					C2380.677,2064.712,2381.214,2063.937,2381.214,2063.162z"/><path d="M1809.116,2106.821c5.901,38.539,9.574,77.279,13.418,116.004c3.168,38.786,6.517,77.556,7.602,116.529
							c-5.922-38.537-9.581-77.278-13.418-116.003C1813.555,2184.564,1810.221,2145.794,1809.116,2106.821z" opacity=".4"/><path d="M1843.984,2109.532c5.902,38.539,9.574,77.279,13.418,116.004c3.168,38.786,6.516,77.555,7.602,116.529
							c-5.922-38.537-9.581-77.278-13.418-116.004C1848.423,2187.275,1845.089,2148.504,1843.984,2109.532z" opacity=".4"/><path d="M1881.101,2112.046c5.155,38.651,8.079,77.46,11.173,116.257c2.419,38.845,5.017,77.677,5.348,116.669
							c-5.176-38.649-8.084-77.459-11.173-116.256C1884.037,2189.871,1881.453,2151.038,1881.101,2112.046z" opacity=".4"/><path d="M1920.282,2114.513c3.723,38.821,5.208,77.718,6.866,116.608c0.981,38.914,2.142,77.821,1.03,116.806
							c-3.743-38.82-5.215-77.717-6.866-116.608C1920.337,2192.405,1919.191,2153.496,1920.282,2114.513z" opacity=".4"/><path d="M1957.393,2117.164c2.976,38.887,3.714,77.807,4.624,116.724c0.233,38.927,0.645,77.852-1.215,116.809
							c-2.997-38.887-3.721-77.807-4.624-116.724C1955.952,2195.046,1955.553,2156.122,1957.393,2117.164z" opacity=".4"/><path d="M1994.499,2119.863c2.23,38.937,2.223,77.864,2.386,116.792c-0.513,38.924-0.847,77.85-3.452,116.765
							c-2.25-38.938-2.229-77.864-2.387-116.792C1991.565,2197.703,1991.913,2158.777,1994.499,2119.863z" opacity=".4"/><path d="M2029.366,2122.573c2.23,38.937,2.223,77.864,2.387,116.791c-0.513,38.925-0.847,77.851-3.453,116.765
							c-2.25-38.937-2.229-77.864-2.386-116.792C2026.433,2200.414,2026.781,2161.488,2029.366,2122.573z" opacity=".4"/><path d="M2064.234,2125.284c2.231,38.937,2.223,77.864,2.387,116.792c-0.513,38.925-0.846,77.85-3.453,116.765
							c-2.25-38.937-2.229-77.864-2.387-116.791C2061.301,2203.124,2061.648,2164.199,2064.234,2125.284z" opacity=".4"/><path d="M2354.511,2106.821c-1.105,38.973-4.438,77.743-7.602,116.53c-3.837,38.725-7.496,77.467-13.417,116.003
							c1.085-38.974,4.433-77.743,7.602-116.529C2344.937,2184.101,2348.609,2145.36,2354.511,2106.821z" opacity=".4"/><path d="M2319.643,2109.532c-1.104,38.972-4.438,77.743-7.602,116.529c-3.837,38.726-7.496,77.467-13.417,116.004
							c1.084-38.975,4.433-77.744,7.602-116.529C2310.068,2186.812,2313.741,2148.071,2319.643,2109.532z" opacity=".4"/><path d="M2282.525,2112.046c-0.351,38.992-2.935,77.825-5.348,116.67c-3.088,38.797-5.998,77.607-11.174,116.256
							c0.332-38.993,2.93-77.825,5.349-116.669C2274.447,2189.506,2277.37,2150.697,2282.525,2112.046z" opacity=".4"/><path d="M2243.346,2114.513c1.09,38.983-0.056,77.892-1.031,116.806c-1.651,38.892-3.123,77.788-6.866,116.608
							c-1.111-38.984,0.049-77.892,1.029-116.806C2238.136,2192.23,2239.622,2153.333,2243.346,2114.513z" opacity=".4"/><path d="M2206.233,2117.164c1.84,38.958,1.441,77.882,1.215,116.809c-0.904,38.917-1.628,77.837-4.625,116.724
							c-1.86-38.957-1.447-77.882-1.215-116.809C2202.52,2194.971,2203.257,2156.051,2206.233,2117.164z" opacity=".4"/><path d="M2169.128,2119.863c2.586,38.915,2.934,77.84,3.453,116.764c-0.158,38.928-0.135,77.854-2.386,116.792
							c-2.606-38.915-2.94-77.84-3.453-116.765C2166.906,2197.727,2166.898,2158.8,2169.128,2119.863z" opacity=".4"/><path d="M2134.26,2122.573c2.585,38.915,2.934,77.84,3.453,116.765c-0.158,38.928-0.136,77.854-2.387,116.792
							c-2.606-38.915-2.939-77.84-3.453-116.765C2132.037,2200.437,2132.03,2161.51,2134.26,2122.573z" opacity=".4"/><path d="M2099.393,2125.284c2.585,38.916,2.934,77.84,3.452,116.765c-0.158,38.927-0.135,77.854-2.387,116.791
							c-2.605-38.915-2.939-77.84-3.452-116.765C2097.169,2203.147,2097.162,2164.221,2099.393,2125.284z" opacity=".4"/><path d="M2389.986,1854.279l-1.577,23.315l-19.984,255.058l-25.682,334.818v0.526l-1.402,18.318
					l-18.582,235.25c0,4.646-19.633,11.219-52.414,17.179l65.474-884.464H2389.986z" opacity=".4"/><path fill="#fff" d="M1820.97,2468.61v0.526l1.402,18.231l18.494,234.198
					c0,5.609,27.785,13.761,72.573,20.422l-65.649-887.707h-73.976L1820.97,2468.61z" opacity=".54"/><g opacity=".4"><path d="M2312.229,1822.698l-2.564,31.541l-72.562,889.709c-9.48,1.251-19.557,2.444-30.169,3.518
						c-9.6,0.954-19.676,1.848-30.11,2.683l72.98-895.909l2.981-36.37L2312.229,1822.698z"/></g><g opacity=".54"><path fill="#fff" d="M1920.282,1892.606c21.588,131.457,34.173,263.586,44.552,395.881
						c9.481,132.362,16.703,264.892,14.841,398.103c-21.659-131.451-34.235-263.582-44.552-395.881
						C1925.704,2158.342,1918.491,2025.811,1920.282,1892.606z"/></g><path fill="#9a9895" d="M2402.083,1798.491v51.396c0,14.548-138.447,41.796-311.356,42.631
					c-0.06,0.06-0.12,0.06-0.179,0.06h-8.049c-176.666,0-320.896-27.904-320.896-42.69v-51.396H2402.083z"/><path d="M2402.083,1798.491v51.396c0,14.548-138.447,41.796-311.356,42.631
					C2416.491,1864.791,2402.083,1798.491,2402.083,1798.491z" opacity=".4"/><g opacity=".54"><path fill="#fff" d="M1782.463,1835.955c49.82,7.458,99.477,12.578,149.346,16.909l150.033,11.909
						c-25.115,2.458-50.314,3.323-75.52,3.272c-25.215,0.105-50.41-1.267-75.55-3.309c-25.106-2.396-50.192-5.328-74.996-10.079
						C1830.995,1849.961,1806.243,1844.552,1782.463,1835.955z"/></g><path fill="#e6e6e6" d="M2402.083,1798.468c0,14.768-142.859,42.713-319.557,42.713
					c-176.698,0-320.931-27.945-320.931-42.713s144.233-26.614,320.931-26.614C2259.224,1771.854,2402.083,1783.7,2402.083,1798.468
					z"/><path fill="#9a9895" d="M2372.748,1738.092v51.396c0,13.594-109.589,28.262-252.031,30.527h-0.357
					c-12.402,0.179-25.042,0.298-37.921,0.298c-160.508,0-291.501-16.039-291.501-30.826v-51.396H2372.748z"/><path d="M2372.748,1738.092v51.396c0,13.594-109.589,28.262-252.031,30.527
					C2330.354,1807.613,2372.748,1738.092,2372.748,1738.092z" opacity=".4"/><path fill="#e6e6e6" d="M2372.729,1738.104c0,14.725-129.721,30.764-290.294,30.764h-5.521
					c-157.944-0.351-286-16.215-286-30.764c0-14.813,131.036-26.646,291.52-26.646c19.37,0,38.304,0.175,56.621,0.526
					C2272.458,1714.351,2372.729,1725.044,2372.729,1738.104z"/><g opacity=".54"><path fill="#fff" d="M1809.116,1779.054c48.483,7.168,96.757,11.993,145.26,14.996
						c24.237,1.49,48.508,2.563,72.833,3.202c24.338,0.857,48.687,0.563,73.249,1.24c-48.334,8.612-97.787,10.251-146.825,7.453
						c-24.521-1.629-48.991-4.32-73.17-8.755C1856.302,1792.806,1832.229,1787.464,1809.116,1779.054z"/></g><path d="M2372.729,1738.104c0,14.725-129.721,30.764-290.294,30.764h-4.908
					c10.781-0.789,158.03-11.569,182.045-28.661c24.806-17.793-120.517-28.223-120.517-28.223
					C2272.458,1714.351,2372.729,1725.044,2372.729,1738.104z" opacity=".4"/><g opacity=".54"><path fill="#fff" d="M2020.702,1722.722c-20.858,2.562-41.717,4.403-62.529,6.444
						c-20.683,2.223-41.9,3.348-61.708,7.512c-2.354,0.431-5.02,1.225-6.116,1.758l-0.253,0.07c0.458-0.268,0.843-0.953,0.811-1.541
						c0.209-0.591,0.13-1.864-0.507-2.409c-0.207-0.261-0.06-0.196-0.06-0.196s1.753,0.818,2.531,1.212
						c4.294,1.843,9.342,3.18,14.288,4.42c9.985,2.502,20.296,4.076,30.508,6.177l61.853,10.915
						c-21.026-0.229-41.962-1.816-62.863-4.25c-10.483-1.066-20.855-2.893-31.287-5.069c-5.228-1.186-10.394-2.356-15.788-4.491
						c-1.542-0.791-2.337-0.734-4.482-2.253c-0.554-0.47-0.96-0.682-1.554-1.437c-0.789-1.158-1.268-3.073-1.008-4.252
						c0.316-1.14,1.048-2.382,1.858-3.2l1.412-0.971c3.526-1.896,6.023-2.38,8.77-3.033c21.359-3.699,42.113-4.832,63.162-5.66
						C1978.725,1721.821,1999.705,1721.671,2020.702,1722.722z"/></g></g></g><g><polygon fill="#f9d367" points="4477.933 3236.755 3636.534 3279.363 3070.75 3169.867 3980.145 3120.535"/><polygon fill="#eaab0c" points="3572.867 3775.767 3124.056 3643.301 2988.233 3405.418 2972.31 3377.602 3545.626 3550.449 3547.736 3568.291"/><path d="M3572.867,3775.767l-448.812-132.466c0,0,130.856-14.268,238.603,9.592
					c106.805,23.651,182.968-102.443,182.968-102.443L3572.867,3775.767z" opacity=".12"/><polygon fill="#f9cf4b" points="4564.204 3456.352 4557.586 3476.111 4485.741 3691.548 3572.867 3775.767 3547.928 3569.441 3545.626 3550.449"/><path d="M4564.204,3456.352l-78.463,235.196l-912.874,84.219c0,0,454.471-92.468,622.331-108.485
					C4363.059,3651.262,4564.204,3456.352,4564.204,3456.352z" opacity=".2"/><polygon points="3547.736 3568.291 2988.233 3405.418 2972.31 3377.602 3545.626 3550.449" opacity=".42"/><path fill="#edbb2f" d="M3636.5,3279.361c0,0,0,0-0.101,0.102l-92.887,270.986l-603.461-181.937l130.647-198.696
					L3636.5,3279.361z"/><path d="M3636.399,3279.463l-92.887,270.986l-603.461-181.937c0,0,159.726,21.202,322.983,57.045
					C3423.87,3460.895,3630.543,3284.511,3636.399,3279.463z" opacity=".12"/><polygon points="4564.204 3456.352 4557.586 3476.111 3547.928 3569.441 3545.626 3550.449" opacity=".76"/><polygon fill="#edbb2f" points="3636.534 3279.363 3543.521 3550.429 4615.617 3451.428 4477.933 3236.755"/><g><path d="M3685.078,2384.562c0,0,301.02-20.907,309.152-7.84c8.133,13.066,18,37.893-10.453,44.426
					s-190.834,24.628-190.834,24.628l295.128,9.345l-43.156-130.665l-344.052-9.147L3685.078,2384.562z"/><path fill="#edbb2f" d="M3436.791,2899.019c-64.184,0.419-120.422-166.938-86.449-304.607
					c33.974-137.67,95.438-203.838,95.438-203.838c11.29,12.962,24.879,36.795,38.154,67.319
					C3542.891,2593.261,3597.666,2860.969,3436.791,2899.019z"/><path d="M3436.791,2899.019c-108.819-176.765-5.541-364.714,47.144-441.127
					C3542.891,2593.261,3597.666,2860.969,3436.791,2899.019z" opacity=".17"/><path fill="#da9b68" d="M3809.153,2821.815c0,7.388-81.07,21.368-181.345,21.368
							c-100.273,0-182.124-13.98-182.124-21.368s81.851-13.314,182.124-13.314
							C3728.083,2808.501,3809.153,2814.428,3809.153,2821.815z"/><path fill="#e6e6e6" d="M3815.271,2695.001l-1.737,24.576l-12.125,150.46l-15.6,197.55l-12.125,153.898
						c0,2.859-11.908,6.841-31.815,10.46c-6.045,1.086-12.813,2.172-20.196,3.149c-5.756,0.76-11.872,1.483-18.314,2.136
						c-5.828,0.579-11.944,1.121-18.279,1.629c-17.59,1.339-36.954,2.135-57.331,2.135c-39.851,0-76.081-3.112-102.575-7.094
						c-27.146-4.054-44.013-9.013-44.013-12.415l-12.125-153.211l-15.6-198.961l-13.862-174.313H3815.271z"/><path fill="#da9b68" d="M3808.9,2824.469l-15.564,167.182c-0.035,6.732-74.054,19.51-165.553,19.51
						c-45.786,0-87.373-3.186-117.487-7.239c-30.114-4.018-48.79-8.904-48.79-12.271l-15.563-167.254
						c0,7.383,81.835,21.354,182.13,21.354C3728.331,2845.751,3808.9,2831.889,3808.9,2824.469z"/><path fill="#9a9895" d="M3808.9,2824.469l-15.564,167.182c-0.035,6.732-74.054,19.51-165.553,19.51
						c-45.786,0-87.373-3.186-117.487-7.239c-30.114-4.018-48.79-8.904-48.79-12.271l-15.563-167.254
						c0,7.383,81.835,21.354,182.13,21.354C3728.331,2845.751,3808.9,2831.889,3808.9,2824.469z"/><path d="M3809.153,2821.826l-0.253,9.881c0,7.42-80.569,21.283-180.828,21.283c-100.295,0-182.13-13.972-182.13-21.355
						l-0.254-9.809c0,0.435,0.29,0.941,0.905,1.412c9.157,7.637,87.047,19.943,181.226,19.943
						c93.889,0,170.946-12.234,180.356-19.907c0.037,0,0.037,0,0.037,0C3808.828,2822.768,3809.153,2822.297,3809.153,2821.826z"/><path d="M3461.864,2848.33c3.644,23.389,5.384,46.95,8.143,70.42c1.503,23.582,4.014,47.074,4.616,70.738
								c-3.65-23.389-5.393-46.949-8.143-70.42C3464.986,2895.485,3462.474,2871.993,3461.864,2848.33z" opacity=".4"/><path d="M3505.563,2851.502c3.19,23.458,4.477,47.052,6.781,70.572c1.046,23.611,3.103,47.149,3.248,70.824
								c-3.198-23.458-4.484-47.052-6.781-70.573C3507.771,2898.714,3505.714,2875.176,3505.563,2851.502z" opacity=".4"/><path d="M3529.346,2852.999c2.322,23.563,2.734,47.192,4.166,70.786c0.174,23.637,1.358,47.239,0.627,70.906
								c-2.327-23.563-2.74-47.192-4.166-70.786C3529.809,2900.268,3528.623,2876.666,3529.346,2852.999z" opacity=".4"/><path d="M3551.875,2854.608c1.868,23.604,1.826,47.238,2.805,70.856c-0.281,23.637,0.449,47.258-0.734,70.908
								c-1.876-23.605-1.835-47.238-2.807-70.856C3551.428,2901.88,3550.696,2878.258,3551.875,2854.608z" opacity=".4"/><path d="M3574.398,2856.246c1.416,23.637,0.922,47.266,1.449,70.897c-0.735,23.628-0.457,47.259-2.096,70.882
								c-1.423-23.637-0.929-47.265-1.447-70.897C3573.047,2903.501,3572.769,2879.869,3574.398,2856.246z" opacity=".4"/><path d="M3595.566,2857.892c1.415,23.638,0.921,47.265,1.447,70.897c-0.735,23.627-0.457,47.259-2.095,70.882
								c-1.423-23.637-0.928-47.265-1.446-70.897C3594.215,2905.146,3593.935,2881.515,3595.566,2857.892z" opacity=".4"/><path d="M3616.732,2859.537c1.415,23.637,0.921,47.266,1.447,70.898c-0.734,23.627-0.456,47.258-2.095,70.881
								c-1.423-23.637-0.928-47.265-1.446-70.897C3615.381,2906.792,3615.101,2883.16,3616.732,2859.537z" opacity=".4"/><path d="M3792.944,2848.33c-0.61,23.663-3.122,47.155-4.616,70.738c-2.752,23.471-4.494,47.031-8.145,70.42
								c0.602-23.664,3.114-47.156,4.616-70.738C3787.559,2895.28,3789.301,2871.719,3792.944,2848.33z" opacity=".4"/><path d="M3771.776,2849.976c-0.609,23.663-3.122,47.154-4.616,70.738c-2.75,23.47-4.492,47.031-8.143,70.42
								c0.602-23.664,3.112-47.155,4.615-70.739C3766.393,2896.926,3768.133,2873.364,3771.776,2849.976z" opacity=".4"/><path d="M3749.246,2851.502c-0.153,23.674-2.21,47.212-3.249,70.823c-2.298,23.521-3.583,47.115-6.781,70.573
								c0.146-23.675,2.202-47.213,3.249-70.824C3744.77,2898.554,3746.055,2874.96,3749.246,2851.502z" opacity=".4"/><path d="M3725.461,2852.999c0.724,23.667-0.463,47.269-0.627,70.906c-1.426,23.594-1.838,47.223-4.167,70.786
								c-0.73-23.667,0.454-47.27,0.627-70.906C3722.727,2900.191,3723.139,2876.563,3725.461,2852.999z" opacity=".4"/><path d="M3702.933,2854.608c1.178,23.649,0.445,47.271,0.735,70.908c-0.972,23.618-0.93,47.251-2.805,70.856
								c-1.187-23.65-0.454-47.271-0.736-70.908C3701.106,2901.847,3701.065,2878.213,3702.933,2854.608z" opacity=".4"/><path d="M3680.408,2856.246c1.631,23.623,1.352,47.255,2.094,70.882c-0.519,23.633-0.024,47.261-1.447,70.897
								c-1.639-23.623-1.36-47.254-2.094-70.882C3679.486,2903.512,3678.992,2879.883,3680.408,2856.246z" opacity=".4"/><path d="M3659.242,2857.892c1.629,23.623,1.352,47.255,2.094,70.882c-0.519,23.633-0.024,47.261-1.447,70.897
								c-1.639-23.623-1.36-47.255-2.094-70.882C3658.32,2905.156,3657.826,2881.529,3659.242,2857.892z" opacity=".4"/><path d="M3638.074,2859.537c1.631,23.623,1.354,47.255,2.096,70.882c-0.52,23.633-0.026,47.261-1.449,70.897
								c-1.637-23.623-1.358-47.254-2.094-70.881C3637.154,2906.803,3636.659,2883.174,3638.074,2859.537z" opacity=".4"/><path d="M3815.271,2695.001l-1.737,24.576l-12.125,150.46l-15.6,197.55l-12.125,153.898
						c0,2.859-11.908,6.841-31.815,10.46l39.705-536.944H3815.271z" opacity=".4"/><path fill="#fff" d="M3525.172,3233.9c-27.146-4.054-44.013-9.013-44.013-12.415l-12.125-153.211
						l-15.6-198.961l-13.862-174.313h45.75L3525.172,3233.9z" opacity=".54"/><g opacity=".4"><path d="M3767.276,2675.854l-1.556,19.147l-44.049,540.094c-5.756,0.76-11.872,1.483-18.314,2.136
							c-5.828,0.579-11.944,1.121-18.279,1.629l44.303-543.858l1.81-22.079L3767.276,2675.854z"/></g><g opacity=".54"><path fill="#fff" d="M3529.346,2718.291c6.728,39.887,11.475,79.922,15.924,119.979
							c4.654,40.042,7.891,80.19,11.123,120.338c2.801,40.181,5.566,80.364,6.936,120.651c1.55,40.275,2.818,80.57,2.073,121.016
							c-6.755-39.885-11.497-79.92-15.955-119.977c-4.641-40.043-7.884-80.19-11.092-120.341
							c-2.776-40.183-5.549-80.365-6.903-120.653C3529.891,2799.031,3528.629,2758.734,3529.346,2718.291z"/></g><path fill="#9a9895" d="M3821.821,2661.159v31.199c0,8.832-84.043,25.373-189.007,25.88
						c-0.036,0.035-0.072,0.035-0.109,0.035h-4.886c-107.244,0-194.799-16.938-194.799-25.915v-31.199H3821.821z"/><path d="M3821.821,2661.159v31.199c0,8.832-84.043,25.373-189.007,25.88
						C3830.568,2701.406,3821.821,2661.159,3821.821,2661.159z" opacity=".4"/><g opacity=".54"><path fill="#fff" d="M3445.685,2683.901c15.091,2.476,30.229,4.085,45.313,5.87
							c15.107,1.62,30.192,3.345,45.347,4.396c30.246,2.998,60.584,4.336,91.076,7.228c-30.502,3.136-61.174,2.158-91.704-0.024
							C3505.321,2698.172,3474.688,2694.102,3445.685,2683.901z"/></g><g><path fill="#dddad7" d="M3821.821,2661.145c0,8.965-86.722,25.929-193.985,25.929s-194.82-16.964-194.82-25.929
							c0-8.964,87.557-16.156,194.82-16.156S3821.821,2652.181,3821.821,2661.145z"/></g><path fill="#9a9895" d="M3804.014,2624.494v31.199c0,8.253-66.525,17.156-152.994,18.532h-0.217
						c-7.528,0.108-15.201,0.181-23.02,0.181c-97.436,0-176.955-9.736-176.955-18.713v-31.199H3804.014z"/><path d="M3804.014,2624.494v31.199c0,8.253-66.525,17.156-152.994,18.532
						C3778.279,2666.697,3804.014,2624.494,3804.014,2624.494z" opacity=".4"/><g><path fill="#dddad7" d="M3804.028,2624.494c0,8.965-78.783,18.689-176.229,18.689
							c-97.444,0-176.985-9.725-176.985-18.689s79.541-16.156,176.985-16.156
							C3725.245,2608.338,3804.028,2615.529,3804.028,2624.494z"/></g><g opacity=".54"><path fill="#fff" d="M3461.864,2649.359c14.688,2.363,29.407,3.929,44.08,5.52c14.692,1.425,29.356,3,44.099,3.586
							c29.436,2.219,58.896,2.084,88.678,2.694c-29.345,5.405-59.353,5.931-89.129,4.522
							C3519.913,2663.287,3490.04,2659.381,3461.864,2649.359z"/></g><g><path fill="#da9b68" d="M4227.241,2801.929c0,7.388-81.07,21.368-181.345,21.368
							c-100.273,0-182.124-13.98-182.124-21.368s81.851-13.314,182.124-13.314
							C4146.171,2788.614,4227.241,2794.541,4227.241,2801.929z"/><path fill="#e6e6e6" d="M4233.358,2675.114l-1.737,24.576l-12.125,150.46l-15.601,197.55l-12.125,153.898
						c0,2.859-11.907,6.841-31.814,10.46c-6.045,1.086-12.813,2.172-20.196,3.149c-5.756,0.76-11.872,1.483-18.314,2.136
						c-5.828,0.579-11.945,1.121-18.279,1.629c-17.59,1.339-36.954,2.135-57.331,2.135c-39.851,0-76.081-3.112-102.575-7.094
						c-27.146-4.054-44.013-9.013-44.013-12.415l-12.125-153.211l-15.6-198.961l-13.862-174.313H4233.358z"/><path fill="#da9b68" d="M4226.988,2804.582l-15.564,167.182c-0.035,6.732-74.054,19.51-165.553,19.51
						c-45.786,0-87.373-3.186-117.487-7.239c-30.114-4.018-48.79-8.904-48.79-12.271l-15.563-167.254
						c0,7.384,81.835,21.354,182.13,21.354C4146.419,2825.864,4226.988,2812.002,4226.988,2804.582z"/><path fill="#9a9895" d="M4226.988,2804.582l-15.564,167.182c-0.035,6.732-74.054,19.51-165.553,19.51
						c-45.786,0-87.373-3.186-117.487-7.239c-30.114-4.018-48.79-8.904-48.79-12.271l-15.563-167.254
						c0,7.384,81.835,21.354,182.13,21.354C4146.419,2825.864,4226.988,2812.002,4226.988,2804.582z"/><path d="M4227.241,2801.939l-0.253,9.881c0,7.42-80.569,21.283-180.828,21.283c-100.295,0-182.13-13.972-182.13-21.355
						l-0.254-9.809c0,0.435,0.29,0.941,0.905,1.412c9.157,7.637,87.047,19.942,181.226,19.942
						c93.889,0,170.946-12.233,180.356-19.907c0.037,0,0.037,0,0.037,0C4226.916,2802.881,4227.241,2802.41,4227.241,2801.939z"/><path d="M3879.951,2828.443c3.645,23.389,5.385,46.95,8.144,70.42c1.503,23.582,4.014,47.074,4.616,70.738
								c-3.65-23.389-5.392-46.95-8.143-70.42C3883.073,2875.598,3880.561,2852.106,3879.951,2828.443z" opacity=".4"/><path d="M3901.117,2830.088c3.644,23.39,5.387,46.951,8.145,70.42c1.502,23.583,4.014,47.075,4.617,70.739
								c-3.651-23.389-5.394-46.95-8.145-70.42C3904.239,2877.244,3901.728,2853.752,3901.117,2830.088z" opacity=".4"/><path d="M3923.65,2831.615c3.19,23.458,4.476,47.051,6.781,70.572c1.046,23.61,3.103,47.149,3.248,70.824
								c-3.198-23.458-4.485-47.052-6.781-70.573C3925.859,2878.827,3923.803,2855.289,3923.65,2831.615z" opacity=".4"/><path d="M3947.435,2833.111c2.32,23.564,2.732,47.193,4.167,70.787c0.171,23.637,1.355,47.239,0.627,70.906
								c-2.329-23.563-2.743-47.191-4.167-70.786C3947.896,2880.382,3946.711,2856.779,3947.435,2833.111z" opacity=".4"/><path d="M3969.963,2834.722c1.867,23.605,1.826,47.238,2.805,70.856c-0.281,23.637,0.449,47.258-0.735,70.908
								c-1.875-23.605-1.835-47.238-2.806-70.856C3969.516,2881.993,3968.785,2858.371,3969.963,2834.722z" opacity=".4"/><path d="M3992.488,2836.359c1.415,23.637,0.919,47.266,1.446,70.898c-0.735,23.627-0.456,47.258-2.094,70.881
								c-1.423-23.637-0.93-47.265-1.447-70.897C3991.137,2883.614,3990.856,2859.982,3992.488,2836.359z" opacity=".4"/><path d="M4013.654,2838.005c1.415,23.637,0.92,47.266,1.446,70.897c-0.733,23.627-0.455,47.26-2.094,70.882
								c-1.423-23.637-0.929-47.265-1.447-70.897C4012.303,2885.26,4012.022,2861.628,4013.654,2838.005z" opacity=".4"/><path d="M4034.82,2839.65c1.415,23.637,0.92,47.265,1.446,70.897c-0.733,23.628-0.455,47.259-2.094,70.882
								c-1.423-23.637-0.929-47.265-1.447-70.897C4033.469,2886.904,4033.189,2863.273,4034.82,2839.65z" opacity=".4"/><path d="M4211.031,2828.443c-0.609,23.663-3.121,47.154-4.616,70.738c-2.751,23.47-4.492,47.031-8.145,70.42
								c0.604-23.664,3.114-47.156,4.618-70.738C4205.646,2875.394,4207.388,2851.832,4211.031,2828.443z" opacity=".4"/><path d="M4189.865,2830.088c-0.609,23.664-3.121,47.156-4.617,70.739c-2.75,23.47-4.492,47.031-8.144,70.42
								c0.603-23.664,3.114-47.156,4.616-70.739C4184.479,2877.039,4186.221,2853.478,4189.865,2830.088z" opacity=".4"/><path d="M4167.333,2831.615c-0.152,23.674-2.209,47.212-3.249,70.823c-2.295,23.521-3.582,47.115-6.78,70.573
								c0.146-23.675,2.202-47.214,3.248-70.824C4162.856,2878.666,4164.143,2855.073,4167.333,2831.615z" opacity=".4"/><path d="M4143.549,2833.111c0.723,23.668-0.462,47.271-0.627,70.907c-1.426,23.595-1.838,47.223-4.167,70.786
								c-0.731-23.667,0.455-47.27,0.627-70.906C4140.815,2880.305,4141.229,2856.676,4143.549,2833.111z" opacity=".4"/><path d="M4121.021,2834.722c1.177,23.649,0.446,47.271,0.735,70.908c-0.971,23.618-0.93,47.251-2.805,70.856
								c-1.186-23.65-0.454-47.271-0.735-70.908C4119.194,2881.96,4119.152,2858.327,4121.021,2834.722z" opacity=".4"/><path d="M4098.495,2836.359c1.632,23.623,1.353,47.255,2.095,70.882c-0.52,23.633-0.025,47.261-1.447,70.897
								c-1.638-23.623-1.359-47.254-2.095-70.881C4097.574,2883.625,4097.08,2859.996,4098.495,2836.359z" opacity=".4"/><path d="M4077.329,2838.005c1.632,23.623,1.352,47.255,2.095,70.882c-0.52,23.633-0.025,47.261-1.447,70.897
								c-1.639-23.622-1.361-47.255-2.094-70.882C4076.408,2885.271,4075.914,2861.642,4077.329,2838.005z" opacity=".4"/><path d="M4056.163,2839.65c1.63,23.623,1.352,47.254,2.095,70.882c-0.52,23.633-0.025,47.261-1.447,70.897
								c-1.639-23.623-1.361-47.254-2.095-70.882C4055.242,2886.915,4054.748,2863.287,4056.163,2839.65z" opacity=".4"/><path d="M4233.358,2675.114l-1.737,24.576l-12.125,150.46l-15.601,197.55l-12.125,153.898
						c0,2.859-11.907,6.841-31.814,10.46l39.705-536.944H4233.358z" opacity=".4"/><path fill="#fff" d="M3943.26,3214.014c-27.146-4.054-44.013-9.013-44.013-12.415l-12.125-153.211
						l-15.6-198.961l-13.862-174.313h45.75L3943.26,3214.014z" opacity=".54"/><g opacity=".4"><path d="M4185.364,2655.967l-1.556,19.147l-44.049,540.094c-5.756,0.76-11.872,1.483-18.314,2.136
							c-5.828,0.579-11.945,1.121-18.279,1.629l44.303-543.858l1.81-22.079L4185.364,2655.967z"/></g><g opacity=".54"><path fill="#fff" d="M3947.435,2698.404c6.727,39.887,11.474,79.922,15.923,119.979
							c4.654,40.042,7.891,80.189,11.122,120.339c2.802,40.18,5.567,80.363,6.937,120.65c1.55,40.274,2.818,80.57,2.072,121.016
							c-6.755-39.885-11.495-79.92-15.954-119.977c-4.641-40.043-7.884-80.19-11.091-120.341
							c-2.778-40.183-5.55-80.365-6.904-120.653C3947.979,2779.144,3946.717,2738.848,3947.435,2698.404z"/></g><path fill="#9a9895" d="M4239.909,2641.272v31.2c0,8.831-84.043,25.372-189.007,25.879
						c-0.037,0.035-0.072,0.035-0.109,0.035h-4.886c-107.244,0-194.799-16.938-194.799-25.914v-31.2H4239.909z"/><path d="M4239.909,2641.272v31.2c0,8.831-84.043,25.372-189.007,25.879
						C4248.656,2681.52,4239.909,2641.272,4239.909,2641.272z" opacity=".4"/><g opacity=".54"><path fill="#fff" d="M3863.772,2664.015c15.091,2.476,30.229,4.085,45.313,5.87
							c15.106,1.62,30.192,3.345,45.347,4.396c30.246,2.998,60.584,4.336,91.078,7.228c-30.503,3.136-61.175,2.158-91.706-0.024
							C3923.41,2678.284,3892.775,2674.215,3863.772,2664.015z"/></g><g><path fill="#dddad7" d="M4239.909,2641.258c0,8.965-86.722,25.929-193.985,25.929s-194.82-16.964-194.82-25.929
							c0-8.964,87.557-16.156,194.82-16.156S4239.909,2632.294,4239.909,2641.258z"/></g><path fill="#9a9895" d="M4222.102,2604.607v31.199c0,8.253-66.525,17.156-152.994,18.532h-0.217
						c-7.528,0.108-15.202,0.181-23.02,0.181c-97.436,0-176.955-9.736-176.955-18.713v-31.199H4222.102z"/><path d="M4222.102,2604.607v31.199c0,8.253-66.525,17.156-152.994,18.532
						C4196.367,2646.811,4222.102,2604.607,4222.102,2604.607z" opacity=".4"/><g><path fill="#dddad7" d="M4222.116,2604.607c0,8.965-78.783,18.689-176.228,18.689
							c-97.445,0-176.986-9.725-176.986-18.689s79.541-16.156,176.986-16.156
							C4143.333,2588.451,4222.116,2595.643,4222.116,2604.607z"/></g><g opacity=".54"><path fill="#fff" d="M3879.951,2629.473c14.689,2.363,29.409,3.93,44.08,5.52c14.693,1.425,29.358,2.999,44.1,3.586
							c29.436,2.22,58.896,2.084,88.68,2.694c-29.347,5.405-59.354,5.931-89.131,4.521
							C3938,2643.4,3908.128,2639.494,3879.951,2629.473z"/></g></g><path fill="#f9d367" d="M4321.449,2690.268c-21.011-167.043-123.557-367.955-238.647-395.133
					c-0.941-0.314-1.986-0.523-2.928-0.732c-4.808-1.463-11.603-2.822-20.175-3.972c-112.686-15.263-526.111-2.196-565.103,37.318
					c-12.647,11.081-24.252,23.52-34.495,37.213c-45.682,60.942-21.43,114.986,7.84,174.256
					c36.69,74.427,48.503,125.229,41.186,219.101c-7.735,98.364-56.865,141.014-70.56,141.014c1.568,0.313,4.182,0.837,7.84,1.464
					c69.933,12.335,508.76,81.849,852.567-52.476C4337.965,2833.059,4323.854,2721.418,4321.449,2690.268z M3698.958,2370.816
					c13.485-32.719,282.134-18.293,303.144-16.726c21.116,1.463,35.229,65.125,15.681,74.218
					c-19.548,9.095-224.222,21.22-277.325,16.621C3703.662,2445.975,3690.805,2390.363,3698.958,2370.816z"/><path d="M4298.975,2848.32c-343.808,134.324-782.635,64.811-852.567,52.476
					c9.826-26.029,248.892-57.598,435.901-83.73c186.904-26.134,277.742-196.417,197.565-386.875
					c-29.373-69.828-30.522-113-20.175-139.76c8.572,1.149,15.367,2.509,20.175,3.972c0.941,0.209,1.986,0.418,2.928,0.732
					c115.091,27.178,217.637,228.09,238.647,395.133C4323.854,2721.418,4337.965,2833.059,4298.975,2848.32z" opacity=".12"/><path d="M4298.975,2848.32c-343.808,134.324-782.635,64.811-852.567,52.476
					c29.688-7.944,69.2-17.666,118.958-27.597c128.68-25.82,685.315,20.488,709.148-162.652
					c21.952-144.986-103.905-316.106-191.712-415.412c115.091,27.178,217.637,228.09,238.647,395.133
					C4323.854,2721.418,4337.965,2833.059,4298.975,2848.32z" opacity=".12"/><g opacity=".54"><path fill="#fff" d="M3565.401,2364.962c-12.454,13.449-15.446,30.151-15.659,45.953
						c-0.481,15.915,2.868,31.964,6.849,47.772c4.335,15.819,9.304,31.399,15.514,47.307c6.251,16.637,11.886,33.49,16.963,50.779
						c10.039,34.328,17.53,71.209,15.638,109.485c-1.767,38.442-16.48,75.085-39.304,103.302
						c5.184-36.357,7.857-69.805,3.144-102.116c-4.603-32.36-14.496-64.508-24-97.782l-14.135-50.33
						c-4.178-17.766-8.968-36.194-9.47-55.351c-1.32-18.929,0.121-38.698,6.588-57.455
						C3534.121,2388.38,3546.776,2369.683,3565.401,2364.962z"/></g></g></g><g><path fill="#6cb854" d="M1951.078,3655.078c0.765,1.454,1.529,2.908,2.487,4.361
							c7.073,13.074,30.951,52.095,63.811,65.96c24.933,10.404,49.071,4.439,63.771-1.88c3.619-1.643,6.501-3.05,8.84-4.223
							c0.192,0.002,0.192,0.002,0.192,0.002c2.499-1.414,4.101-2.358,4.806-2.832c0.353-0.236,0.512-0.475,0.512-0.475
							s-7.771-15.487-21.33-32.729c-0.384-0.005-0.416-0.246-0.479-0.729c-11.423-14.092-26.619-29.187-44.68-36.862
							c-4.859-1.984-9.623-3.243-14.356-4.264C1980.464,3634.984,1951.078,3655.078,1951.078,3655.078z"/><path d="M1953.564,3659.439c7.073,13.074,30.951,52.095,63.811,65.96
						c24.933,10.404,49.071,4.439,63.771-1.88c3.619-1.643,6.501-3.05,8.84-4.223
						C2084.519,3718.509,1980.921,3701.627,1953.564,3659.439z" opacity=".3"/><path fill="#fff" d="M2057.835,3688.229c-13.615-5.045-25.286-11.736-37.859-16.493
							c-12.257-5.742-24.392-9.314-38.599-11.983c6.649-3.121,14.228-3.783,21.588-3.293c7.381,0.603,14.354,3.009,21.207,5.398
							C2037.187,3668.158,2049.536,3676.071,2057.835,3688.229z" opacity=".74"/><path fill="#6cb854" d="M1885.319,3488.957c0.64,1.525,1.278,3.051,2.113,4.603
							c5.947,13.742,26.503,55.154,58.507,73.356c24.294,13.699,49.309,11.345,64.793,7.295c3.821-1.082,6.873-2.039,9.352-2.847
							c0.195,0.029,0.195,0.029,0.195,0.029c2.664-1.021,4.375-1.71,5.133-2.069c0.379-0.181,0.563-0.391,0.563-0.391
							s-6.43-16.191-18.561-34.921c-0.389-0.06-0.398-0.299-0.417-0.777c-10.26-15.356-24.25-32.229-41.834-42.288
							c-4.739-2.627-9.449-4.534-14.149-6.205C1916.969,3473.595,1885.319,3488.957,1885.319,3488.957z"/><path d="M1887.432,3493.56c5.947,13.742,26.503,55.154,58.507,73.356
						c24.294,13.699,49.309,11.345,64.793,7.295c3.821-1.082,6.873-2.039,9.352-2.847
						C2014.615,3569.814,1911.217,3538.553,1887.432,3493.56z" opacity=".3"/><path fill="#fff" d="M1990.402,3536.512c-13.329-6.693-24.545-14.881-36.857-21.3
							c-11.876-7.365-23.888-12.649-37.96-17.368c14.826-4.324,30.364,1.275,43.291,8.053
							C1971.385,3513.868,1983.095,3523.29,1990.402,3536.512z" opacity=".74"/><path fill="#6cb854" d="M1820.524,3315.473c0.604,1.541,1.207,3.082,2.005,4.658
							c5.624,13.896,25.217,55.872,56.911,75.229c24.063,14.576,49.262,13.222,64.927,9.807c3.867-0.924,6.959-1.756,9.471-2.461
							c0.195,0.037,0.195,0.037,0.195,0.037c2.703-0.908,4.441-1.527,5.212-1.855c0.386-0.163,0.576-0.364,0.576-0.364
							s-6.046-16.35-17.755-35.446c-0.39-0.074-0.393-0.313-0.399-0.789c-9.917-15.67-23.542-32.994-40.955-43.687
							c-4.694-2.799-9.379-4.881-14.06-6.727C1852.727,3301.449,1820.524,3315.473,1820.524,3315.473z"/><path d="M1822.529,3320.131c5.624,13.896,25.217,55.872,56.911,75.229
						c24.063,14.576,49.262,13.222,64.927,9.807c3.867-0.924,6.959-1.756,9.471-2.461
						C1948.383,3400.949,1845.276,3365.795,1822.529,3320.131z" opacity=".3"/><path fill="#fff" d="M1924.906,3366.89c-13.224-7.138-24.294-15.72-36.507-22.583
							c-11.747-7.794-23.695-13.534-37.688-18.807c15.094-3.729,30.499,2.436,43.306,9.662
							C1906.364,3343.574,1917.881,3353.393,1924.906,3366.89z" opacity=".74"/><path fill="#6cb854" d="M1779.314,3164.328c0.604,1.541,1.207,3.083,2.005,4.658
							c5.624,13.896,25.217,55.873,56.911,75.229c24.062,14.575,49.261,13.222,64.927,9.806c3.867-0.924,6.959-1.756,9.471-2.461
							c0.195,0.037,0.195,0.037,0.195,0.037c2.704-0.908,4.441-1.527,5.212-1.854c0.386-0.164,0.576-0.365,0.576-0.365
							s-6.046-16.35-17.755-35.446c-0.389-0.074-0.393-0.313-0.399-0.789c-9.917-15.67-23.542-32.994-40.955-43.687
							c-4.694-2.799-9.378-4.88-14.06-6.727C1811.516,3150.306,1779.314,3164.328,1779.314,3164.328z"/><path d="M1781.319,3168.986c5.624,13.896,25.217,55.873,56.911,75.229
						c24.062,14.575,49.261,13.222,64.927,9.806c3.867-0.924,6.959-1.756,9.471-2.461
						C1907.173,3249.805,1804.066,3214.65,1781.319,3168.986z" opacity=".3"/><path fill="#fff" d="M1883.695,3215.746c-13.223-7.139-24.294-15.72-36.506-22.583
							c-11.747-7.795-23.695-13.534-37.688-18.808c15.094-3.729,30.499,2.436,43.306,9.662
							C1865.153,3192.43,1876.67,3202.248,1883.695,3215.746z" opacity=".74"/><g><path fill="#6cb854" d="M1781.3,3022.125c0.318,1.385,0.635,2.769,1.119,4.222
							c3.026,12.517,14.446,50.874,39.516,73.286c19.05,16.918,41.259,21.067,55.415,21.547c3.505,0.052,6.321,0.018,8.612-0.034
							c0.165,0.071,0.165,0.071,0.165,0.071c2.487-0.179,4.089-0.32,4.808-0.428c0.359-0.054,0.553-0.178,0.553-0.178
							s-3.062-14.609-10.701-32.642c-0.33-0.142-0.301-0.337-0.242-0.728c-6.538-14.861-16.091-31.846-29.858-44.207
							c-3.722-3.264-7.534-5.94-11.374-8.424C1811.352,3017.393,1781.3,3022.125,1781.3,3022.125z"/><path d="M1782.419,3026.347c3.026,12.517,14.446,50.874,39.516,73.286
						c19.05,16.918,41.259,21.067,55.415,21.547c3.505,0.052,6.321,0.018,8.612-0.034
						C1881.433,3118.574,1796.093,3068.371,1782.419,3026.347z" opacity=".3"/><path fill="#fff" d="M1865.543,3085.871c-11.107-8.024-19.681-17.286-29.466-25.314
							c-9.148-8.875-18.675-16.021-29.756-23.949c14.146-0.581,26.642,7.52,36.919,15.957
							C1852.809,3062.08,1861.578,3072.568,1865.543,3085.871z" opacity=".74"/></g><g><path fill="#6cb854" d="M1852.416,2868.752c-0.577,1.057-1.154,2.112-1.639,3.359
							c-5.096,9.689-18.983,41.363-12.268,76.865c5.169,26.913,20.572,49.712,31.694,63.052c2.794,3.267,5.084,5.848,6.962,7.937
							c0.09,0.191,0.09,0.191,0.09,0.191c2.111,2.198,3.489,3.601,4.133,4.205c0.322,0.303,0.553,0.413,0.553,0.413
							s6.327-10.875,11.026-27.862c-0.181-0.383-0.04-0.464,0.243-0.624c3.677-14.224,6.202-32.403,2.547-51.928
							c-1.036-5.235-2.497-10.23-4.097-15.146C1879.487,2893.902,1852.416,2868.752,1852.416,2868.752z"/><path d="M1850.777,2872.111c-5.096,9.689-18.983,41.363-12.268,76.865
						c5.169,26.913,20.572,49.712,31.694,63.052c2.794,3.267,5.084,5.848,6.962,7.937
						C1875.062,3014.364,1836.5,2907.889,1850.777,2872.111z" opacity=".3"/><path fill="#fff" d="M1881.941,2981.675c-4.065-14.143-5.634-27.724-8.898-41.109
							c-0.886-6.831-2.803-13.371-4.204-20.116l-4.974-20.609c11.088,10.102,16.303,24.585,19.7,38.611
							C1885.75,2952.799,1886.761,2967.553,1881.941,2981.675z" opacity=".74"/></g><g><path fill="#6cb854" d="M1988.485,3027.534c0.021,1.378,0.044,2.755-0.084,4.192
							c0.045,12.446-1.976,50.482-21.662,71.829c-14.986,16.106-36.302,19.22-50.423,19.025c-3.514-0.115-6.354-0.284-8.672-0.446
							c-0.148,0.064-0.148,0.064-0.148,0.064c-2.545-0.299-4.192-0.519-4.941-0.66c-0.375-0.07-0.601-0.205-0.601-0.205
							s-0.525-14.549,2.708-32.322c0.297-0.127,0.219-0.324,0.063-0.721c2.908-14.636,8.327-31.264,19.124-43.039
							c2.938-3.105,6.112-5.616,9.362-7.93C1957.089,3021.338,1988.485,3027.534,1988.485,3027.534z"/><path d="M1988.401,3031.727c0.045,12.446-1.976,50.482-21.662,71.829
						c-14.986,16.106-36.302,19.22-50.423,19.025c-3.514-0.115-6.354-0.284-8.672-0.446
						C1911.566,3119.765,1985.018,3073.346,1988.401,3031.727z" opacity=".3"/><path fill="#fff" d="M1919.479,3087.63c0.961-12.335,7.4-22.767,15.023-32.071
							c4.43-4.119,9.014-8.258,14.537-11.037c5.592-2.637,11.742-4.299,17.853-3.615c-9.75,7.174-17.433,13.549-24.506,21.936
							C1934.631,3070.463,1928.352,3079.333,1919.479,3087.63z" opacity=".74"/></g><g><path fill="#6cb854" d="M2012.896,3150.723c0.021,1.377,0.044,2.754-0.084,4.192
							c0.045,12.446-1.976,50.482-21.662,71.829c-14.986,16.106-36.302,19.22-50.423,19.025c-3.514-0.115-6.354-0.285-8.671-0.446
							c-0.149,0.063-0.149,0.063-0.149,0.063c-2.545-0.298-4.192-0.518-4.941-0.659c-0.375-0.071-0.601-0.206-0.601-0.206
							s-0.525-14.548,2.708-32.321c0.297-0.128,0.219-0.325,0.063-0.721c2.908-14.636,8.327-31.265,19.124-43.04
							c2.939-3.105,6.112-5.615,9.362-7.93C1981.5,3144.526,2012.896,3150.723,2012.896,3150.723z"/><path d="M2012.812,3154.915c0.045,12.446-1.976,50.482-21.662,71.829
						c-14.986,16.106-36.302,19.22-50.423,19.025c-3.514-0.115-6.354-0.285-8.671-0.446
						C1935.977,3242.953,2009.428,3196.533,2012.812,3154.915z" opacity=".3"/><path fill="#fff" d="M1943.889,3210.818c0.961-12.335,7.4-22.767,15.023-32.072
							c4.431-4.118,9.014-8.257,14.537-11.037c5.592-2.636,11.742-4.298,17.853-3.615c-9.75,7.175-17.433,13.549-24.506,21.936
							C1959.042,3193.65,1952.762,3202.521,1943.889,3210.818z" opacity=".74"/></g><g><path fill="#6cb854" d="M2059.277,3279.157c0.146,1.487,0.292,2.974,0.288,4.548
							c1.162,13.459,2.462,54.888-16.176,80.689c-14.201,19.486-36.173,25.785-50.932,27.516c-3.678,0.358-6.658,0.566-9.092,0.711
							c-0.149,0.089-0.149,0.089-0.149,0.089c-2.684,0.027-4.423,0.016-5.218-0.034c-0.398-0.025-0.646-0.14-0.646-0.14
							s-1.852-15.668-0.07-35.341c0.299-0.179,0.2-0.382,0.002-0.789c1.724-16.234,5.89-34.969,16.105-49.193
							c2.79-3.764,5.877-6.916,9.063-9.866C2025.947,3276.771,2059.277,3279.157,2059.277,3279.157z"/><path d="M2059.565,3283.705c1.162,13.459,2.462,54.888-16.176,80.689
						c-14.201,19.486-36.173,25.785-50.932,27.516c-3.678,0.358-6.658,0.566-9.092,0.711
						C1987.247,3389.518,2059.763,3329.196,2059.565,3283.705z" opacity=".3"/><path fill="#fff" d="M1992.627,3353.662c0.039-13.349,5.725-25.327,12.763-36.311
							c4.201-5.029,8.521-10.121,14.032-13.928c5.57-3.688,11.871-6.49,18.511-6.83c-9.647,8.834-17.197,16.973-23.835,27.031
							C2006.684,3333.004,2000.955,3343.502,1992.627,3353.662z" opacity=".74"/></g><g><path fill="#6cb854" d="M2122.178,3399.313c0.312,1.74,0.625,3.479,0.772,5.345
							c2.641,15.77,8.166,64.653-10.626,98.006c-14.336,25.208-38.842,35.957-55.547,40.215c-4.17,0.976-7.557,1.667-10.325,2.202
							c-0.162,0.128-0.162,0.128-0.162,0.128c-3.065,0.434-5.056,0.681-5.969,0.739c-0.457,0.03-0.751-0.068-0.751-0.068
							s-3.645-18.283-3.525-41.855c0.324-0.256,0.191-0.481-0.075-0.935c0.388-19.489,3.325-42.307,13.617-60.685
							c2.822-4.876,6.045-9.071,9.399-13.044C2083.84,3401.473,2122.178,3399.313,2122.178,3399.313z"/><path d="M2122.951,3404.658c2.641,15.77,8.166,64.653-10.626,98.006
						c-14.336,25.208-38.842,35.957-55.547,40.215c-4.17,0.976-7.557,1.667-10.325,2.202
						C2050.586,3540.823,2127.612,3458.519,2122.951,3404.658z" opacity=".3"/><path fill="#fff" d="M2053.243,3497.545c-0.651-15.69,4.633-30.484,11.573-44.333
							c4.214-6.531,8.55-13.129,14.365-18.505c5.875-5.268,12.678-9.704,20.295-11.545c-10.533,11.294-18.617,22.367-25.297,35.296
							C2066.649,3470.811,2061.153,3484.215,2053.243,3497.545z" opacity=".74"/></g><g><path fill="#6cb854" d="M2191.042,3539.336c0.33,1.738,0.661,3.477,0.829,5.343c2.807,15.761,8.852,64.66-9.532,98.401
							c-14.027,25.505-38.357,36.687-54.975,41.234c-4.149,1.047-7.52,1.797-10.276,2.379c-0.16,0.131-0.16,0.131-0.16,0.131
							c-3.054,0.486-5.036,0.768-5.946,0.842c-0.456,0.037-0.75-0.057-0.75-0.057s-3.836-18.263-3.974-41.89
							c0.321-0.262,0.186-0.486-0.085-0.935c0.175-19.539,2.856-42.457,12.923-61.049c2.762-4.934,5.932-9.192,9.234-13.229
							C2152.82,3542.141,2191.042,3539.336,2191.042,3539.336z"/><path d="M2191.872,3544.679c2.807,15.761,8.852,64.66-9.532,98.401
						c-14.027,25.505-38.357,36.687-54.975,41.234c-4.149,1.047-7.52,1.797-10.276,2.379
						C2121.166,3682.357,2197.109,3598.581,2191.872,3544.679z" opacity=".3"/><path fill="#fff" d="M2123.344,3638.938c-0.833-15.729,4.272-30.632,11.036-44.618
							c4.13-6.61,8.377-13.292,14.122-18.775c5.804-5.376,12.548-9.944,20.154-11.929c-10.376,11.502-18.318,22.745-24.838,35.815
							C2136.438,3611.938,2131.101,3625.463,2123.344,3638.938z" opacity=".74"/></g><g><path fill="#6cb854" d="M2170.496,3766.494c-34.617-55.531-67.435-115.579-97.819-175.863
						c-30.401-60.593-58.415-122.705-83.833-186.018c-25.198-63.416-46.739-128.287-64.934-194.022
						c-17.463-65.9-29.681-132.698-36.457-199.547l-0.024-0.249c-0.343-3.373-2.812-6.234-5.516-6.389
						c-2.612-0.152-4.487,2.294-4.305,5.498c3.969,67.614,13.581,135.975,28.645,203.752
						c15.781,67.573,35.118,134.691,58.253,200.507c23.353,65.704,49.458,130.429,78.124,193.85
						c28.915,63.545,59.312,125.253,94.142,186.653c7.594,13.386,21.574,18.385,31.224,11.162
						c9.65-7.222,11.317-23.929,3.724-37.314c-0.229-0.403-0.463-0.799-0.705-1.188L2170.496,3766.494z"/></g><g><path fill="#6cb854" d="M2109.866,3199.285c0.765,1.453,1.53,2.908,2.487,4.361
							c7.073,13.073,30.951,52.094,63.812,65.959c24.933,10.404,49.071,4.439,63.771-1.88c3.62-1.642,6.502-3.049,8.84-4.222
							c0.192,0.002,0.192,0.002,0.192,0.002c2.499-1.415,4.102-2.359,4.806-2.832c0.353-0.236,0.513-0.476,0.513-0.476
							s-7.772-15.487-21.331-32.729c-0.384-0.004-0.416-0.246-0.479-0.728c-11.423-14.093-26.619-29.187-44.68-36.863
							c-4.859-1.984-9.623-3.243-14.356-4.263C2139.252,3179.19,2109.866,3199.285,2109.866,3199.285z"/><path d="M2112.353,3203.646c7.073,13.073,30.951,52.094,63.812,65.959
						c24.933,10.404,49.071,4.439,63.771-1.88c3.62-1.642,6.502-3.049,8.84-4.222
						C2243.307,3262.715,2139.709,3245.834,2112.353,3203.646z" opacity=".3"/><path fill="#fff" d="M2216.624,3232.436c-13.615-5.044-25.287-11.736-37.86-16.492
							c-12.256-5.742-24.392-9.314-38.599-11.984c6.648-3.121,14.227-3.783,21.588-3.293c7.381,0.603,14.354,3.008,21.208,5.399
							C2195.976,3212.364,2208.325,3220.277,2216.624,3232.436z" opacity=".74"/><path fill="#6cb854" d="M2044.107,3033.163c0.64,1.525,1.279,3.051,2.113,4.603
							c5.948,13.742,26.504,55.154,58.507,73.357c24.293,13.698,49.308,11.344,64.793,7.294c3.82-1.081,6.872-2.039,9.351-2.847
							c0.195,0.029,0.195,0.029,0.195,0.029c2.664-1.02,4.376-1.709,5.133-2.069c0.38-0.18,0.563-0.39,0.563-0.39
							s-6.43-16.192-18.561-34.922c-0.389-0.06-0.398-0.299-0.417-0.777c-10.261-15.356-24.25-32.229-41.835-42.287
							c-4.738-2.628-9.448-4.535-14.149-6.205C2075.758,3017.801,2044.107,3033.163,2044.107,3033.163z"/><path d="M2046.22,3037.766c5.948,13.742,26.504,55.154,58.507,73.357
						c24.293,13.698,49.308,11.344,64.793,7.294c3.82-1.081,6.872-2.039,9.351-2.847
						C2173.404,3114.021,2070.006,3082.76,2046.22,3037.766z" opacity=".3"/><path fill="#fff" d="M2149.19,3080.719c-13.328-6.694-24.544-14.882-36.857-21.301
							c-11.875-7.365-23.887-12.649-37.96-17.368c14.827-4.323,30.365,1.275,43.292,8.053
							C2130.174,3058.074,2141.884,3067.497,2149.19,3080.719z" opacity=".74"/><path fill="#6cb854" d="M1979.313,2859.679c0.604,1.542,1.207,3.083,2.005,4.659
							c5.624,13.895,25.218,55.872,56.912,75.229c24.062,14.575,49.261,13.221,64.926,9.807c3.867-0.925,6.959-1.756,9.471-2.461
							c0.195,0.037,0.195,0.037,0.195,0.037c2.704-0.909,4.441-1.527,5.212-1.855c0.386-0.164,0.576-0.365,0.576-0.365
							s-6.046-16.35-17.755-35.446c-0.39-0.074-0.393-0.313-0.399-0.789c-9.917-15.67-23.542-32.994-40.955-43.687
							c-4.694-2.799-9.379-4.88-14.06-6.727C2011.515,2845.656,1979.313,2859.679,1979.313,2859.679z"/><path d="M1981.317,2864.338c5.624,13.895,25.218,55.872,56.912,75.229
						c24.062,14.575,49.261,13.221,64.926,9.807c3.867-0.925,6.959-1.756,9.471-2.461
						C2107.171,2945.155,2004.064,2910.002,1981.317,2864.338z" opacity=".3"/><path fill="#fff" d="M2083.694,2911.096c-13.223-7.137-24.293-15.719-36.506-22.582
							c-11.747-7.795-23.695-13.534-37.688-18.808c15.094-3.729,30.499,2.436,43.306,9.663
							C2065.151,2887.781,2076.669,2897.599,2083.694,2911.096z" opacity=".74"/><path fill="#6cb854" d="M1938.103,2708.534c0.604,1.542,1.206,3.083,2.005,4.659
							c5.624,13.895,25.217,55.872,56.911,75.229c24.062,14.575,49.261,13.222,64.927,9.807c3.867-0.924,6.959-1.756,9.471-2.461
							c0.195,0.037,0.195,0.037,0.195,0.037c2.703-0.909,4.441-1.527,5.212-1.855c0.386-0.164,0.576-0.365,0.576-0.365
							s-6.046-16.35-17.755-35.445c-0.389-0.075-0.393-0.313-0.399-0.79c-9.917-15.67-23.542-32.993-40.956-43.687
							c-4.694-2.799-9.378-4.88-14.06-6.726C1970.304,2694.512,1938.103,2708.534,1938.103,2708.534z"/><path d="M1940.107,2713.193c5.624,13.895,25.217,55.872,56.911,75.229
						c24.062,14.575,49.261,13.222,64.927,9.807c3.867-0.924,6.959-1.756,9.471-2.461
						C2065.961,2794.012,1962.854,2758.857,1940.107,2713.193z" opacity=".3"/><path fill="#fff" d="M2042.483,2759.952c-13.223-7.138-24.293-15.72-36.506-22.583
							c-11.746-7.795-23.694-13.534-37.688-18.807c15.094-3.73,30.499,2.435,43.306,9.662
							C2023.941,2736.637,2035.459,2746.455,2042.483,2759.952z" opacity=".74"/><g><path fill="#6cb854" d="M1940.088,2566.332c0.318,1.384,0.636,2.768,1.119,4.221
							c3.027,12.518,14.446,50.874,39.517,73.287c19.049,16.917,41.258,21.066,55.415,21.546c3.505,0.052,6.321,0.018,8.612-0.034
							c0.166,0.071,0.166,0.071,0.166,0.071c2.486-0.179,4.089-0.32,4.808-0.428c0.359-0.053,0.553-0.178,0.553-0.178
							s-3.062-14.608-10.701-32.642c-0.33-0.142-0.301-0.337-0.241-0.728c-6.538-14.86-16.092-31.846-29.858-44.206
							c-3.722-3.265-7.533-5.941-11.374-8.424C1970.14,2561.6,1940.088,2566.332,1940.088,2566.332z"/><path d="M1941.207,2570.553c3.027,12.518,14.446,50.874,39.517,73.287
						c19.049,16.917,41.258,21.066,55.415,21.546c3.505,0.052,6.321,0.018,8.612-0.034
						C2040.221,2662.78,1954.881,2612.577,1941.207,2570.553z" opacity=".3"/><path fill="#fff" d="M2024.331,2630.078c-11.107-8.025-19.681-17.287-29.466-25.314
							c-9.148-8.875-18.676-16.021-29.756-23.949c14.146-0.581,26.641,7.519,36.919,15.957
							C2011.597,2606.286,2020.366,2616.775,2024.331,2630.078z" opacity=".74"/></g><g><path fill="#6cb854" d="M2011.204,2412.958c-0.577,1.057-1.154,2.112-1.639,3.359
							c-5.096,9.69-18.982,41.364-12.268,76.865c5.17,26.913,20.572,49.713,31.694,63.052c2.794,3.267,5.084,5.848,6.962,7.937
							c0.09,0.191,0.09,0.191,0.09,0.191c2.112,2.198,3.489,3.601,4.133,4.205c0.322,0.304,0.553,0.413,0.553,0.413
							s6.327-10.875,11.025-27.862c-0.181-0.383-0.039-0.464,0.244-0.624c3.677-14.224,6.201-32.403,2.547-51.927
							c-1.035-5.236-2.496-10.231-4.097-15.146C2038.275,2438.109,2011.204,2412.958,2011.204,2412.958z"/><path d="M2009.565,2416.317c-5.096,9.69-18.982,41.364-12.268,76.865
						c5.17,26.913,20.572,49.713,31.694,63.052c2.794,3.267,5.084,5.848,6.962,7.937
						C2033.85,2558.57,1995.288,2452.095,2009.565,2416.317z" opacity=".3"/><path fill="#fff" d="M2040.729,2525.881c-4.065-14.142-5.634-27.724-8.898-41.109
							c-0.886-6.831-2.802-13.371-4.205-20.117l-4.973-20.609c11.087,10.101,16.303,24.584,19.7,38.611
							C2044.539,2497.005,2045.549,2511.759,2040.729,2525.881z" opacity=".74"/></g><g><path fill="#6cb854" d="M2147.274,2571.74c0.021,1.378,0.044,2.755-0.084,4.193
							c0.044,12.445-1.976,50.482-21.663,71.828c-14.986,16.107-36.302,19.221-50.423,19.025c-3.514-0.115-6.354-0.284-8.671-0.445
							c-0.149,0.063-0.149,0.063-0.149,0.063c-2.545-0.298-4.192-0.519-4.941-0.66c-0.375-0.07-0.601-0.205-0.601-0.205
							s-0.525-14.548,2.708-32.322c0.297-0.127,0.219-0.324,0.063-0.72c2.908-14.637,8.327-31.265,19.124-43.04
							c2.939-3.105,6.112-5.615,9.362-7.93C2115.878,2565.545,2147.274,2571.74,2147.274,2571.74z"/><path d="M2147.19,2575.934c0.044,12.445-1.976,50.482-21.663,71.828
						c-14.986,16.107-36.302,19.221-50.423,19.025c-3.514-0.115-6.354-0.284-8.671-0.445
						C2070.354,2663.971,2143.807,2617.552,2147.19,2575.934z" opacity=".3"/><path fill="#fff" d="M2078.268,2631.836c0.96-12.334,7.4-22.767,15.022-32.071
							c4.431-4.118,9.015-8.257,14.537-11.037c5.592-2.636,11.743-4.298,17.852-3.615c-9.75,7.175-17.432,13.549-24.506,21.936
							C2093.42,2614.669,2087.14,2623.539,2078.268,2631.836z" opacity=".74"/></g><g><path fill="#6cb854" d="M2171.684,2694.929c0.021,1.378,0.044,2.755-0.084,4.192
							c0.044,12.446-1.976,50.482-21.663,71.829c-14.986,16.106-36.301,19.22-50.423,19.025c-3.514-0.115-6.354-0.284-8.671-0.446
							c-0.148,0.064-0.148,0.064-0.148,0.064c-2.545-0.299-4.193-0.519-4.942-0.66c-0.375-0.07-0.601-0.205-0.601-0.205
							s-0.525-14.549,2.708-32.322c0.297-0.127,0.219-0.325,0.063-0.721c2.908-14.636,8.327-31.264,19.124-43.039
							c2.938-3.106,6.112-5.615,9.362-7.93C2140.288,2688.732,2171.684,2694.929,2171.684,2694.929z"/><path d="M2171.6,2699.121c0.044,12.446-1.976,50.482-21.663,71.829
						c-14.986,16.106-36.301,19.22-50.423,19.025c-3.514-0.115-6.354-0.284-8.671-0.446
						C2094.765,2787.159,2168.217,2740.739,2171.6,2699.121z" opacity=".3"/><path fill="#fff" d="M2102.678,2755.024c0.96-12.335,7.4-22.767,15.022-32.072
							c4.431-4.118,9.015-8.257,14.537-11.036c5.592-2.637,11.743-4.299,17.852-3.615c-9.749,7.175-17.432,13.549-24.506,21.936
							C2117.83,2737.857,2111.55,2746.728,2102.678,2755.024z" opacity=".74"/></g><g><path fill="#6cb854" d="M2218.065,2823.363c0.146,1.487,0.293,2.975,0.288,4.548
							c1.162,13.459,2.462,54.888-16.176,80.689c-14.201,19.486-36.173,25.785-50.932,27.517c-3.678,0.358-6.658,0.566-9.092,0.71
							c-0.149,0.089-0.149,0.089-0.149,0.089c-2.684,0.027-4.423,0.017-5.218-0.034c-0.397-0.024-0.645-0.14-0.645-0.14
							s-1.852-15.668-0.07-35.341c0.298-0.179,0.199-0.382,0.001-0.788c1.724-16.234,5.89-34.97,16.106-49.194
							c2.79-3.764,5.877-6.915,9.063-9.866C2184.736,2820.977,2218.065,2823.363,2218.065,2823.363z"/><path d="M2218.354,2827.911c1.162,13.459,2.462,54.888-16.176,80.689
						c-14.201,19.486-36.173,25.785-50.932,27.517c-3.678,0.358-6.658,0.566-9.092,0.71
						C2146.035,2933.724,2218.551,2873.402,2218.354,2827.911z" opacity=".3"/><path fill="#fff" d="M2151.416,2897.869c0.038-13.35,5.725-25.328,12.762-36.311
							c4.202-5.029,8.521-10.121,14.033-13.928c5.57-3.689,11.871-6.491,18.511-6.831c-9.647,8.834-17.197,16.973-23.835,27.032
							C2165.473,2877.21,2159.744,2887.709,2151.416,2897.869z" opacity=".74"/></g><g><path fill="#6cb854" d="M2280.966,2943.521c0.312,1.739,0.625,3.479,0.773,5.344
							c2.641,15.771,8.166,64.653-10.627,98.007c-14.336,25.208-38.842,35.956-55.546,40.215c-4.17,0.975-7.557,1.666-10.326,2.201
							c-0.162,0.128-0.162,0.128-0.162,0.128c-3.065,0.435-5.055,0.681-5.969,0.74c-0.457,0.029-0.751-0.069-0.751-0.069
							s-3.646-18.283-3.526-41.855c0.324-0.256,0.191-0.481-0.075-0.934c0.389-19.49,3.325-42.307,13.617-60.686
							c2.822-4.876,6.045-9.071,9.399-13.043C2242.628,2945.679,2280.966,2943.521,2280.966,2943.521z"/><path d="M2281.739,2948.864c2.641,15.771,8.166,64.653-10.627,98.007
						c-14.336,25.208-38.842,35.956-55.546,40.215c-4.17,0.975-7.557,1.666-10.326,2.201
						C2209.375,3085.03,2286.4,3002.725,2281.739,2948.864z" opacity=".3"/><path fill="#fff" d="M2212.03,3041.751c-0.651-15.69,4.634-30.483,11.573-44.333
							c4.214-6.531,8.551-13.129,14.365-18.505c5.875-5.267,12.679-9.704,20.295-11.545c-10.532,11.295-18.616,22.367-25.297,35.296
							C2225.438,3015.018,2219.941,3028.421,2212.03,3041.751z" opacity=".74"/></g><g><path fill="#6cb854" d="M2349.831,3083.542c0.33,1.738,0.661,3.477,0.829,5.343c2.806,15.761,8.851,64.66-9.533,98.402
							c-14.027,25.504-38.357,36.687-54.975,41.233c-4.149,1.047-7.521,1.797-10.277,2.38c-0.16,0.131-0.16,0.131-0.16,0.131
							c-3.053,0.485-5.036,0.767-5.946,0.841c-0.456,0.038-0.75-0.057-0.75-0.057s-3.836-18.263-3.974-41.89
							c0.32-0.262,0.185-0.486-0.085-0.935c0.175-19.539,2.855-42.456,12.923-61.048c2.762-4.935,5.932-9.193,9.234-13.23
							C2311.608,3086.347,2349.831,3083.542,2349.831,3083.542z"/><path d="M2350.66,3088.885c2.806,15.761,8.851,64.66-9.533,98.402
						c-14.027,25.504-38.357,36.687-54.975,41.233c-4.149,1.047-7.521,1.797-10.277,2.38
						C2279.954,3226.564,2355.897,3142.787,2350.66,3088.885z" opacity=".3"/><path fill="#fff" d="M2282.131,3183.145c-0.832-15.729,4.273-30.631,11.037-44.617
							c4.13-6.611,8.377-13.292,14.122-18.775c5.804-5.377,12.547-9.945,20.154-11.93c-10.376,11.502-18.318,22.746-24.839,35.816
							C2295.226,3156.145,2289.89,3169.67,2282.131,3183.145z" opacity=".74"/></g><g><path fill="#6cb854" d="M2329.284,3310.701c-34.617-55.532-67.435-115.579-97.819-175.863
						c-30.402-60.594-58.415-122.706-83.833-186.019c-25.198-63.416-46.739-128.287-64.934-194.022
						c-17.463-65.899-29.681-132.698-36.457-199.547l-0.024-0.248c-0.342-3.374-2.812-6.234-5.516-6.39
						c-2.612-0.151-4.487,2.294-4.305,5.498c3.969,67.614,13.581,135.976,28.645,203.753c15.78,67.572,35.118,134.69,58.253,200.506
						c23.353,65.704,49.458,130.429,78.123,193.85c28.915,63.545,59.312,125.253,94.142,186.653
						c7.594,13.386,21.573,18.385,31.224,11.163c9.649-7.223,11.316-23.93,3.724-37.315c-0.229-0.402-0.463-0.799-0.704-1.187
						L2329.284,3310.701z"/></g></g></g><g><path d="M2705.783,2272.133c0,0-48.939,16.088-55.009,45.368c-9.641,46.502,77.693,47.637,77.693,47.637l-122.494,27.221
					l-32.892-103.212l94.139-28.355L2705.783,2272.133z"/><polygon fill="#d8d4d2" points="2402.774 3960.852 2233.25 3782.904 2223.615 2227.393"/><polygon fill="#e6e6e6" points="2223.423 2227.342 2047.414 3805.887 2233.25 3782.904"/><polygon fill="#5aa1fa" points="2047.414 3805.887 2402.774 3960.852 2233.25 3782.904"/><polygon fill="#bcbcbc" points="2047.414 3805.887 2402.774 3960.852 2233.25 3782.904"/><path fill="#f9d367" d="M3283.779,2858.516l-81.917-701.539l-309.459,22.404l-120.773,8.753l-548.207,39.208
					l179.235,1733.54c0,0,0.347,0,0.347-0.351l575.515-111.67l411.682-79.816L3283.779,2858.516z M2889.464,2336.986
					l-235.907,21.406c-17,1.542-32.031-10.989-33.572-27.989l-1.18-12.989c-1.542-17,10.989-32.031,27.988-33.574l235.907-21.406
					c17-1.542,32.031,10.988,33.572,27.988l1.18,12.991C2918.994,2320.412,2906.464,2335.444,2889.464,2336.986z"/><path d="M3390.314,3768.881l-987.181,191.808c1.34-0.771,6.107-3.444,13.798-7.901
					c379.022-219.671,627.54-610.158,670.192-1046.155c42.402-433.442,114.735-749.707,114.735-749.707L3390.314,3768.881z" opacity=".2"/><path fill="#fff" d="M2508.816,3644.827c-21.671-96.601-38.471-193.771-53.558-291.143
						c-15.395-97.336-27.9-195.009-39.849-292.749c-11.025-97.847-21.43-195.768-28.961-294.023
						c-7.839-98.221-13.926-196.646-15.105-295.647c21.732,96.594,38.559,193.761,53.632,291.135
						c15.381,97.337,27.888,195.011,39.775,292.757c10.964,97.854,21.37,195.774,28.888,294.032
						C2501.462,3447.411,2507.574,3545.834,2508.816,3644.827z" opacity=".64"/><path d="M3390.2,3769.046c0,0-411.502,79.782-411.678,79.812c35.493-5.854,252.484-332.124,290.234-796.47
					c3.687-45.349-29.772-160.077,15.023-193.871L3390.2,3769.046z" opacity=".2"/><path fill="#fff" d="M2670.853,3516.426c-5.373,0-10.642-1.753-14.989-5.027c-5.35-4.036-8.832-10.077-9.673-16.742
						l-116.475-927.074c-0.842-6.687,1.084-13.467,5.327-18.701c4.254-5.258,10.458-8.555,17.191-9.154l497.908-43.122
						c13.086-0.83,24.824,8.14,26.737,21.146l131.407,891.885c1.982,13.536-7.322,26.127-20.847,28.18l-512.839,78.311
						C2673.354,3516.333,2672.098,3516.426,2670.853,3516.426z M2582.257,2587.022l110.076,876.111l463.168-70.725l-124.396-844.266
						L2582.257,2587.022z" opacity=".64"/><g><path d="M2477.588,2479.344c0,0,41.469,24.05,48.352-23.706c31.972,32.208,4.008,70.52,4.008,70.52
					S2457.989,2497.81,2477.588,2479.344z"/><path fill="#ff6f61" d="M2677.63,2588.088l-13.094-49.295l-19.495-73.565c-3.655-13.53-14.181-24.247-27.664-28.016
						l-200.196-55.961c-13.482-3.769-27.883-0.02-38.024,9.654l-91.573,88.153c-5.071,4.836-8.836,11.051-10.721,17.792
						l-131.818,471.569c-5.872,21.006,6.439,42.871,27.446,48.744l324.36,90.668c21.008,5.873,42.872-6.439,48.744-27.446
						l131.818-471.568C2679.298,2602.076,2679.458,2594.854,2677.63,2588.088z M2508.594,2440.608
						c14.266,3.988,22.624,18.831,18.592,33.254c-3.988,14.267-18.832,22.625-33.098,18.637
						c-14.423-4.032-22.782-18.875-18.793-33.142C2479.326,2444.935,2494.17,2436.576,2508.594,2440.608z"/><path fill="#c14727" d="M2507.497,3088.643c-1.683,0-3.401-0.23-5.084-0.715l-324.371-90.672
						c-10.031-2.813-15.9-13.259-13.109-23.267l131.821-471.573c0.888-3.137,2.687-6.111,5.085-8.395l91.64-88.227
						c4.842-4.658,12.037-6.411,18.171-4.635l72.708,20.315l-6.227,3.505c-11.23,6.296-19.301,16.534-22.726,28.802
						c-3.413,12.222-1.845,25.02,4.416,36.112s16.453,19.071,28.698,22.506c4.162,1.153,8.463,1.753,12.798,1.753
						c21.25,0,40.067-14.274,45.763-34.729c3.436-12.268,1.902-25.135-4.301-36.181l-3.482-6.203l6.722,1.684l65.801,18.401
						c6.422,1.799,11.507,6.964,13.271,13.49l32.572,122.771c0.83,3.066,0.772,6.595-0.161,9.893l-131.799,471.551
						C2523.408,3082.97,2515.925,3088.643,2507.497,3088.643z M2406.656,2406.371c-3.378,0-6.607,1.314-9.086,3.667l-91.651,88.25
						c-1.649,1.568-2.883,3.597-3.482,5.719l-131.811,471.55c-1.925,6.896,2.11,14.09,9.005,16.027l324.371,90.671
						c7.033,1.937,14.124-2.306,16.015-9.017l131.798-471.551c0.646-2.306,0.704-4.703,0.15-6.779l-32.572-122.77
						c-1.222-4.52-4.739-8.094-9.166-9.339l-59.529-16.649c4.601,11.207,5.304,23.268,2.075,34.844
						c-6.41,23.014-27.568,39.063-51.458,39.063c-4.865,0-9.708-0.669-14.389-1.983c-13.755-3.851-25.216-12.821-32.249-25.273
						c-7.045-12.452-8.797-26.865-4.969-40.585c3.251-11.645,10.204-21.653,19.866-28.733l-59.541-16.649
						C2408.951,2406.533,2407.821,2406.371,2406.656,2406.371z"/><path fill="#fff" d="M2314.647,2704.466l-9.8-2.722l18.771-67.149l46.95,13.121l-1.937,6.94l-37.149-10.399
						l-6.872,24.581l34.913,9.755l-1.937,6.94l-34.913-9.754L2314.647,2704.466z"/><path fill="#fff" d="M2383.319,2693.559l-7.794,27.926l-9.8-2.722l18.771-67.15l23.106,6.457
						c10.331,2.859,17.525,6.595,21.584,11.114c4.013,4.543,5.166,9.963,3.39,16.304c-2.49,8.878-9.777,13.306-21.953,13.282
						l14.413,36.551l-11.553-3.229l-12.591-33.621L2383.319,2693.559z M2385.21,2686.848l13.421,3.759
						c6.918,1.938,12.291,2.261,16.119,0.969c3.828-1.291,6.365-4.128,7.587-8.509c1.245-4.428,0.507-8.094-2.26-10.977
						c-2.721-2.859-7.702-5.327-14.966-7.356l-12.729-3.551L2385.21,2686.848z"/><path fill="#fff" d="M2485.59,2752.246l-46.95-13.121l18.771-67.15l46.95,13.121l-1.937,6.941l-37.149-10.377
						l-6.042,21.63l34.913,9.754l-1.937,6.896l-34.913-9.755l-6.895,24.697l37.149,10.399L2485.59,2752.246z"/><path fill="#fff" d="M2551.195,2770.602l-46.95-13.145l18.771-67.15l46.95,13.145l-1.937,6.918l-37.149-10.377
						l-6.042,21.63l34.889,9.755l-1.937,6.895l-34.89-9.754l-6.895,24.696l37.149,10.4L2551.195,2770.602z"/><path fill="#fff" d="M2324.056,2749.502c-1.545,5.557-4.612,9.246-9.224,11.138
						c-4.566,1.868-10.4,1.821-17.479-0.161l-11.668-3.252l9.386-33.575l12.89,3.598c6.549,1.845,11.207,4.704,14.043,8.624
						C2324.817,2739.771,2325.509,2744.313,2324.056,2749.502z M2318.844,2748.188c1.222-4.382,0.761-8.071-1.383-11.046
						c-2.145-2.998-5.903-5.234-11.346-6.757l-7.103-2.006l-7.494,26.818l5.949,1.684c5.834,1.637,10.562,1.706,14.113,0.254
						C2315.155,2755.658,2317.576,2752.661,2318.844,2748.188z"/><path fill="#fff" d="M2352.12,2775.79l-23.452-6.55l9.385-33.574l23.452,6.549l-0.968,3.482l-18.563-5.212
						l-3.021,10.838l17.457,4.866l-0.968,3.436l-17.456-4.865l-3.459,12.359l18.563,5.188L2352.12,2775.79z"/><path fill="#fff" d="M2361.482,2778.396l9.385-33.552l4.889,1.36l-8.394,30.023l18.563,5.212l-0.992,3.528
						L2361.482,2778.396z"/><path fill="#fff" d="M2392.082,2786.951l9.386-33.553l4.889,1.361l-9.385,33.552L2392.082,2786.951z"/><path fill="#fff" d="M2441.961,2764.698l5.28,1.476l-24.582,29.332l-4.843-1.338l-5.696-37.795l5.188,1.453
						l3.598,24.42c0.415,2.813,0.623,5.466,0.6,8.025c1.406-2.283,2.998-4.52,4.796-6.664L2441.961,2764.698z"/><path fill="#fff" d="M2467.073,2807.912l-23.452-6.549l9.385-33.575l23.452,6.572l-0.968,3.459l-18.563-5.188
						l-3.021,10.814l17.457,4.889l-0.969,3.437l-17.457-4.889l-3.459,12.36l18.563,5.188L2467.073,2807.912z"/><path fill="#fff" d="M2485.221,2797.95l-3.897,13.951l-4.889-1.36l9.385-33.575l11.553,3.229
						c5.142,1.43,8.74,3.298,10.769,5.558s2.583,5.004,1.706,8.163c-1.245,4.45-4.889,6.642-10.977,6.618l7.218,18.286l-5.788-1.614
						l-6.295-16.811L2485.221,2797.95z M2486.167,2794.584l6.71,1.891c3.459,0.969,6.134,1.106,8.071,0.484
						c1.891-0.669,3.159-2.076,3.759-4.267c0.623-2.214,0.253-4.059-1.107-5.488s-3.874-2.651-7.495-3.666l-6.364-1.776
						L2486.167,2794.584z"/><path fill="#fff" d="M2528.273,2806.943l15.958-13.651l5.281,1.476l-19.785,16.627l-3.644,13.028l-4.958-1.384
						l3.574-12.844l-8.209-24.651l5.35,1.499L2528.273,2806.943z"/><path d="M2677.413,2608.817l-131.818,471.568c-5.872,21.007-27.736,33.319-48.744,27.446l-324.36-90.668
					c-21.007-5.873-33.318-27.738-27.446-48.744l4.382-15.678c112.351,21.94,258.554,43.709,314.781,22.749
					c76.909-29.038,166.527-318.198,200.328-436.698l13.094,49.295C2679.458,2594.854,2679.298,2602.076,2677.413,2608.817z" opacity=".09"/><path d="M2496.851,3107.832l-315.738-88.258c110.401,21.057,247.624,40.484,301.776,20.297
					c53.883-20.434,114.318-169.519,157.187-297.484l-94.481,337.999C2539.723,3101.393,2517.859,3113.705,2496.851,3107.832z" opacity=".09"/><g><path fill="#fff" d="M2550.699,2861.572c-0.185,0-0.369-0.023-0.554-0.069l-290.542-81.217
						c-0.519-0.138-0.957-0.483-1.222-0.968c-0.265-0.462-0.334-1.016-0.184-1.545l47.503-169.928
						c0.312-1.084,1.464-1.661,2.514-1.407l290.542,81.217c0.519,0.138,0.957,0.484,1.222,0.969
						c0.265,0.461,0.334,1.015,0.185,1.545l-47.503,169.928C2552.406,2860.996,2551.587,2861.572,2550.699,2861.572z
						 M2262.659,2776.92l286.634,80.109l46.407-166.008l-286.633-80.109L2262.659,2776.92z"/></g></g><g><path fill="#9a9895" d="M2623.489,2176.088c3.275-0.392,7.08-0.623,11.253-0.623c17.309,0,40.934,4.218,59.247,18.222
					l8.484-0.607c-22.891-20.87-56.28-25.651-79.676-22.85c-111.342,13.314-145.775,137.984-143.481,228.389l5.922,1.656
					C2482.478,2312.004,2515.34,2189.032,2623.489,2176.088z"/><path fill="#9a9895" d="M2729.683,2276.319c-1.228,45.611-27.479,92.549-58.137,126.735
					c-3.32,3.69-6.86,7.425-10.63,11.161c-46.88,46.478-109.695,45.774-142.971,41.15c-10.053-1.386-18.358-7.07-24.037-14.81
					c-1.732,0.402-3.599,1.088-5.628,2.108c6.556,9.705,16.606,16.862,28.858,18.559c8.498,1.165,18.852,2.087,30.37,2.087
					c35.074,0,80.917-8.566,117.559-44.897c3.863-3.828,7.472-7.633,10.873-11.415c31.634-35.277,58.624-83.83,59.685-131.218
					L2729.683,2276.319z"/></g></g></svg>